<svg width="171" height="145" fill="none" xmlns="http://www.w3.org/2000/svg"><path d="M47.389 3.301c.382.102.697.373.853.736 2.883 6.69 4.09 10.954 5.036 14.291.345 1.22.656 2.316 1 3.36 1.266 3.842 3.076 7.378 9.257 14.891 7.85 9.542 15.885 13.965 27.834 17.068 7.7 2 17.511 1.887 25.374.217 3.476-.74 7.033-1.4 10.196-.783 3.316.647 6.065 2.662 7.978 6.856 1.733 3.797.844 7.184-1.185 9.864-1.978 2.614-5.045 4.591-7.873 5.882-5.534 2.524-11.495 2.05-16.818 1.626a190.75 190.75 0 00-2.132-.163 55.327 55.327 0 01-.719-.055c-.371-.03-.698-.056-1.032-.068-.508-.018-.87.008-1.148.084a1.216 1.216 0 00-.619.37c-.191.211-.416.579-.619 1.24-.148.481-.005 1.39.58 2.52.558 1.077 1.347 2.019 1.976 2.481 2.839 2.09 41.295 28.771 44.186 30.577 3.037 1.896 4.989 3.364 6.893 4.862l-.797 1.013.797-1.013c1.135.894 3.959 3.257 6.902 5.796 3.222 2.782 4.749 4.634 5.695 7.871 1.019 3.49-.435 5.873-1.733 7.869-.374.577-.946 1.053-1.546 1.429a9.528 9.528 0 01-2.109.962c-1.515.488-3.36.71-5.027.277-2.933-.762-5.703-2.309-8.021-4.261-.793-.669-1.852-1.386-4.73-3.335-.851-.576-1.862-1.26-3.071-2.082-4.785-3.254-12.622-8.629-25.932-17.996.392 1.11.71 2.326.778 3.483.177 3.024-.414 5.86-2.458 8.337-1.645 1.994-3.536 2.789-5.594 3.005-1.53.16-3.214-.004-4.883-.167-.431-.042-.861-.084-1.287-.121-1.137-.097-2.324-.535-3.406-1.063-1.099-.537-2.178-1.211-3.117-1.859-.73-.503-1.387-1-1.919-1.419-.26.577-.592 1.261-.988 1.979-1.025 1.855-2.643 4.234-4.792 5.27-3.847 1.855-7.472 1.534-11.31.487-1.366-.373-2.61-1.192-3.674-2.117-1.073-.933-2.03-2.035-2.824-3.07a31.567 31.567 0 01-1.411-2.004 29.6 29.6 0 01-.511.825c-.472.731-1.037 1.518-1.648 2.174-.577.62-1.343 1.286-2.238 1.527-.284.076-.56.154-.832.23-.987.277-1.895.531-2.774.622-1.227.127-2.404-.047-3.927-.632-2.682-1.03-4.753-2.377-5.978-5.3-.897-2.142-.985-5.197-.899-7.534a45.062 45.062 0 01.362-4.23c-.176-5.772-.95-13.901-3.306-19.063l-.507-1.113c-2.05-4.516-4.817-10.608-8.022-14.843a165.4 165.4 0 01-3.162-4.357 243.14 243.14 0 00-1.283-1.799c-1.275-1.762-2.468-3.29-3.973-4.81-2.907-2.934-7.715-7.861-10.367-11.033-2.7-3.228-5.26-6.15-7.794-9.04-3.612-4.12-7.167-8.174-10.981-12.957a1.29 1.29 0 01-.277-.915C3.267 17.55 11.152 8.784 20.571 4.748 29.867.764 40.468 1.464 47.389 3.3z" fill="#F7F7F7" stroke="#000" stroke-width="2.578" stroke-linecap="round" stroke-linejoin="round"/></svg>