<svg width="101" height="101" fill="none" xmlns="http://www.w3.org/2000/svg"><circle cx="50.764" cy="50.763" r="48.847" transform="rotate(-.025 50.764 50.763)" fill="#76B3FF" stroke="#000" stroke-width="2"/><path d="M53.06 32.054l-27.049 2.81a1 1 0 00-.848.687l-7.905 24.487m31.683-15.224l8.593-26.62a1 1 0 011.57-.479l23.721 18.699a1 1 0 01.338 1.075L69.214 83.465a1 1 0 01-1.264.662l-23.692-7.648m.963-20.14l-3.72 11.524m-2.259 6.997l-23.29-7.518a1 1 0 01-.645-1.259l1.951-6.045M39.242 74.86l5.016 1.62m-5.016-1.62l2.259-6.997m5.281.796l-2.524 7.82m-27-16.441l6.27 2.024m17.973 5.801l-6.27-2.024m-11.703-3.777l2.881-8.927a1 1 0 011.26-.645l9.8 3.164a1 1 0 01.644 1.259l-2.882 8.926m-11.703-3.777l11.703 3.777m28.477-4.897l5.203 1.68a1 1 0 001.258-.645l2.707-8.386a1 1 0 00-.644-1.26l-5.202-1.678a1 1 0 00-1.26.644l-2.706 8.387a1 1 0 00.644 1.258zM31.068 40.58l8.286-1.035a1 1 0 01.431.04l2.6.84a1 1 0 01.644 1.259l-2.84 8.798a1 1 0 01-1.26.644l-9.8-3.163a1 1 0 01-.644-1.259l1.756-5.44a1 1 0 01.828-.684zm19.157 37.825l7.293 2.354a1 1 0 001.258-.644l3.637-11.268a1 1 0 00-.644-1.259l-7.292-2.354a1 1 0 00-1.259.645l-3.637 11.267a1 1 0 00.644 1.26zm1.362-21.375l5.202 1.679a1 1 0 001.26-.644l2.706-8.387a1 1 0 00-.644-1.259l-5.203-1.68a1 1 0 00-1.258.645l-2.707 8.387a1 1 0 00.644 1.259zM76.29 43.012l-1.206 3.736a1 1 0 01-1.259.645l-4.784-1.545a1 1 0 01-.645-1.258l1.777-5.503a1 1 0 011.57-.48l4.213 3.312a1 1 0 01.334 1.093zm-10.785-8.05l-2.542 7.874a1 1 0 01-1.259.644l-5.202-1.68a1 1 0 01-.645-1.258l3.223-9.983a1 1 0 011.594-.46l4.521 3.789a1 1 0 01.31 1.074z" stroke="#fff" stroke-width="2" stroke-linecap="round"/></svg>