<svg width="657" height="576" fill="none" xmlns="http://www.w3.org/2000/svg"><path d="M392.873 36.217c-3.098 1.857-9.527-5.284-10.114-5.935-1.777-1.975-2.671-2.997-2.729-4.446-.214-4.905 8.39-11.115 12.319-9.066 2.902 1.51 2.557 7.15 2.189 13.151-.211 3.477-.363 5.511-1.665 6.296z" fill="#000"/><path d="M382.995 23.63c-2.122-.22-3.266-2.427-4.46-4.815-1.45-2.9-2.88-7.387-1.911-7.987.545-.34 2.189 1.365 5.452 4.785 4.358 4.567 4.715 5.573 4.427 6.364-.418 1.16-2.185 1.79-3.508 1.654zm6.31-2.89c-1.39-1.62-.705-4.009.069-6.564.939-3.104 2.983-7.346 4.1-7.116.63.127.652 2.495.673 7.223.028 6.312-.404 7.289-1.157 7.665-1.1.555-2.817-.2-3.685-1.209z" fill="#000"/><path d="M386.003 19.814c-1.973-.77-2.535-3.234-3.101-5.893-.686-3.224-.966-8 .103-8.339.602-.193 1.759 1.914 4.058 6.121 3.058 5.617 3.158 6.699 2.69 7.403-.679 1.03-2.521 1.186-3.75.708z" fill="#000"/><path d="M478.958 232.281c-5.187-9.509-75.211-96.823-87.314-197.97" stroke="#000" stroke-width="3.61" stroke-linecap="round" stroke-linejoin="round"/><path d="M563.034 568.637c.108 3.375 21.947 4.794 25.109 4.996 11.885.773 31.086.535 31.339-2.661.213-2.66-12.74-7.285-25.069-8.334-15.81-1.341-31.467 3.129-31.379 5.999z" fill="#000" stroke="#000" stroke-width="3.61" stroke-miterlimit="10"/><path d="M575.623 361.236c1.579 4.091 15.94 111.752-10.892 205.941" stroke="#000" stroke-width="3.61" stroke-linecap="round" stroke-linejoin="round"/><path d="M537.448 561.072c-.044 3.376-21.853 5.206-25.011 5.468-11.868.997-31.07 1.121-31.383-2.07-.263-2.655 12.601-7.523 24.908-8.805 15.781-1.638 31.52 2.536 31.486 5.407z" fill="#000" stroke="#000" stroke-width="3.61" stroke-miterlimit="10"/><path d="M513.395 359.974c-2.798 25.944-2.394 102.382 21.603 200.574" stroke="#000" stroke-width="3.61" stroke-linecap="round" stroke-linejoin="round"/><path d="M510.344 69.703c-14.596 5.128-32.381 6.41-39.449 6.41-10.813.586-20.952 3.441-18.956 19.652 1.995 16.211 47.135 24.69 58.405 25.189 11.27.499 23.895 8.729 30.379 10.225 6.485 1.496 6.734-9.477 10.974-5.237 4.239 4.24 3.99 17.707-20.7 21.198-19.752 2.794-48.298-3.696-60.102-7.496-4.216 8.086 9.862 22.271 6.904 51.858-2.959 29.587-.494 138.073 2.958 157.797 3.452 19.725 14.301 20.218 26.135 20.218 11.835 0 80.378 5.917 96.651 2.959 16.273-2.959 13.314-58.681 12.328-82.844-.986-24.162 1.479-157.304-16.273-188.37-17.752-31.066-71.009-37.97-89.254-31.56z" fill="#fff" stroke="#000" stroke-width="3.61" stroke-linecap="round" stroke-linejoin="round"/><path d="M615.548 194.246c17.866 14.12 49.968 48.412 35.444 72.618-18.154 30.257-81.263-25.935-85.585-54.464" stroke="#000" stroke-width="3.61" stroke-linecap="round" stroke-linejoin="round"/><path d="M567.999 212.562c1.241-3.221-.869-7.409-5.138-15.663-3.944-7.625-6.259-11.998-8.812-11.993-2.152-.003-3.566 3.099-3.953 5.304-1.118 6.269 4.662 12.864 6.154 14.562 3.418 3.903 7.349 6.314 7.228 6.532-.122.217-3.326-2.863-7.267-3.071-3.062-.161-6.461 1.42-6.394 3.31.089 2.351 5.597 5.785 10.455 5.618.496-.015 6.067-.307 7.727-4.599z" fill="#000" stroke="#000" stroke-width="2.256" stroke-miterlimit="10"/><path d="M507.189 102.66c-1.717.208-3.259-.997-3.445-2.692-.186-1.695 1.056-3.239 2.773-3.447 1.717-.21 3.26.996 3.445 2.691.186 1.695-1.055 3.239-2.773 3.448zm-34.931-8.431c-1.717.209-3.259-.996-3.445-2.691-.186-1.696 1.056-3.24 2.773-3.448 1.717-.209 3.259.996 3.445 2.691.186 1.696-1.056 3.24-2.773 3.448z" fill="#000"/><path fill-rule="evenodd" clip-rule="evenodd" d="M90.59 40.153c-39.155 6.39-65.683 43.306-59.252 82.453 6.43 39.148 43.385 65.704 82.54 59.315l202.038-32.971c14.882-2.429 27.941-9.268 38.059-18.963l41.294-2.126-21.331-32.098c2.358-9.287 2.882-19.203 1.229-29.266-6.43-39.148-43.385-65.704-82.54-59.314L90.59 40.153z" fill="#fff"/><path d="M31.338 122.606l.987-.162-.987.162zM90.59 40.153l-.161-.987.16.987zm23.288 141.768l.161.987-.161-.987zm202.038-32.971l.161.987-.161-.987zm38.059-18.963l-.052-.999-.372.019-.268.258.692.722zm41.294-2.126l.051.999 1.753-.091-.971-1.462-.833.554zm-21.331-32.098l-.969-.246-.109.43.246.37.832-.553zm1.229-29.266l-.986.162.986-.162zm-82.54-59.314l-.161-.987.161.987zM32.325 122.444C25.983 83.842 52.142 47.441 90.75 41.14l-.322-1.974c-39.7 6.479-66.598 43.91-60.078 83.603l1.974-.325zm81.392 58.49c-38.61 6.301-75.05-19.886-81.392-58.49l-1.974.325c6.52 39.692 43.989 66.617 83.688 60.139l-.322-1.974zm202.037-32.971l-202.037 32.971.322 1.974 202.038-32.971-.323-1.974zm37.529-18.698c-9.976 9.56-22.852 16.303-37.529 18.698l.323 1.974c15.088-2.462 28.33-9.397 38.589-19.228l-1.383-1.444zm41.935-2.403l-41.295 2.126.103 1.997 41.294-2.125-.102-1.998zm-22.112-30.545l21.33 32.097 1.666-1.107-21.331-32.097-1.665 1.107zm1.075-29.658c1.63 9.925 1.112 19.702-1.212 28.858l1.939.493c2.39-9.42 2.922-19.474 1.246-29.675l-1.973.324zm-81.392-58.49c38.61-6.3 75.05 19.886 81.392 58.49l1.973-.324c-6.52-39.693-43.988-66.618-83.688-60.14l.323 1.974zM90.751 41.14L292.789 8.17l-.323-1.974-202.037 32.97.322 1.974zm36.528 39.863c.255 1.61.709 2.786 1.363 3.527.664.74 1.592 1.016 2.785.827 1.183-.187 1.967-.728 2.352-1.624.394-.907.462-2.17.206-3.79-.254-1.61-.707-2.775-1.358-3.498-.651-.722-1.573-.988-2.766-.8-1.183.187-1.972.725-2.369 1.612-.398.878-.469 2.127-.213 3.746zm11.244-1.777c.419 2.647.048 4.828-1.112 6.542-1.16 1.714-2.987 2.768-5.479 3.162-1.561.247-2.992.125-4.292-.365-1.302-.5-2.374-1.339-3.216-2.518-.842-1.179-1.399-2.621-1.668-4.328-.421-2.657-.054-4.832 1.1-6.526 1.154-1.693 2.986-2.738 5.498-3.135 1.561-.247 2.992-.126 4.292.365 1.3.49 2.37 1.32 3.211 2.489.841 1.169 1.397 2.607 1.666 4.314zm2.426-2.01c-.59-3.733-.33-6.676.781-8.83 1.119-2.165 3.145-3.742 6.08-4.733a51.146 51.146 0 013.114-.955 229.32 229.32 0 003.308-.955l1.123 3.803a308.69 308.69 0 00-5.535 1.576c-1.262.379-2.182.723-2.759 1.033-.579.3-1.037.675-1.373 1.126-.326.45-.546 1.01-.658 1.685-.114.664-.121 1.53-.022 2.597l.219-.034a5.215 5.215 0 011.746-2.155 6.019 6.019 0 012.619-1.07c2.008-.317 3.666.052 4.976 1.107 1.309 1.045 2.144 2.712 2.506 5 .417 2.639.033 4.802-1.151 6.49-1.176 1.677-3.006 2.711-5.488 3.104-2.483.392-4.563-.188-6.24-1.742-1.668-1.565-2.751-3.914-3.246-7.046zm9.179 5.155c2.105-.333 2.928-1.95 2.469-4.849-.446-2.822-1.619-4.082-3.52-3.782a3.762 3.762 0 00-1.514.612c-.475.324-.9.719-1.273 1.186-.366.455-.619.898-.759 1.327.311 1.969.864 3.427 1.66 4.375.795.938 1.774 1.315 2.937 1.13zm6.984-14.39l4.859-.767 4.516 8.664c.387.754.715 1.666.984 2.737l.087-.014c-.051-1.016.009-1.99.179-2.921l1.565-9.626 4.756-.752-3.98 19.43c-.362 1.797-1.063 3.21-2.103 4.24-1.03 1.027-2.326 1.665-3.887 1.911-.766.122-1.531.158-2.294.11l-.556-3.52a7.674 7.674 0 001.775-.087c.786-.125 1.431-.475 1.936-1.052.517-.569.863-1.364 1.039-2.386l.136-.841-9.012-15.125zm23.187-3.665l.94 5.95c.224 1.415.991 2.02 2.3 1.812a9.3 9.3 0 002.325-.666 17.47 17.47 0 002.106-1.108l-1.111-7.026 4.436-.701 2.572 16.263-4.437.701-1.021-6.459c-.942.706-1.837 1.24-2.684 1.603-.847.362-1.683.609-2.507.74-1.775.28-3.218.046-4.33-.703-1.114-.758-1.804-1.976-2.069-3.654l-.957-6.05 4.437-.702zm28.55 12.155l-1.208-2.076-.116.019c-.598 1.058-1.265 1.835-2.002 2.33-.729.482-1.729.824-2.999 1.025-1.561.247-2.863-.005-3.906-.754-1.033-.751-1.68-1.951-1.941-3.6-.273-1.726.127-3.091 1.201-4.096 1.082-1.016 2.833-1.76 5.253-2.232l2.808-.534-.112-.712c-.261-1.649-1.235-2.34-2.922-2.073-1.3.206-2.765.84-4.396 1.903l-1.943-2.764c1.717-1.276 3.715-2.093 5.993-2.454 2.182-.345 3.93-.134 5.244.632 1.314.767 2.124 2.12 2.431 4.059l1.713 10.837-3.098.49zm-2.5-7.328l-1.708.33c-1.283.242-2.206.627-2.769 1.153-.563.526-.776 1.226-.638 2.099.198 1.25 1.015 1.763 2.45 1.536 1.028-.163 1.801-.588 2.318-1.276.527-.69.713-1.525.558-2.504l-.211-1.338zm11.9-10.828l1.017 6.43c.107.678.258 2.354.452 5.027l5.702-12.59 5.339-.845L233.33 72.6l-4.291.678-1.026-6.487c-.182-1.154-.343-2.799-.482-4.934l-5.678 12.558-5.323.841-2.572-16.262 4.291-.679zm10.094-8.767c.103 1.842-.371 3.274-1.423 4.295-1.052 1.011-2.694 1.693-4.924 2.046-2.299.363-4.063.235-5.295-.385-1.221-.622-2.048-1.863-2.482-3.723l3.971-.628c.226.988.585 1.652 1.076 1.992.499.328 1.306.405 2.421.228.98-.154 1.673-.488 2.079-1 .414-.522.602-1.252.563-2.19l4.014-.635zm16.306 21.56c-5.062.8-8.032-1.577-8.911-7.134-.437-2.764-.081-4.982 1.066-6.654 1.145-1.682 3.003-2.726 5.572-3.133 1.882-.297 3.627-.195 5.237.306l-.766 3.64a20.956 20.956 0 00-2.057-.376 6.206 6.206 0 00-1.848.009c-2.308.365-3.203 2.186-2.684 5.464.503 3.18 1.908 4.588 4.216 4.223a8.155 8.155 0 002.318-.71 8.864 8.864 0 002.012-1.42l.6 3.796a7.22 7.22 0 01-2.032 1.29c-.7.29-1.607.523-2.723.7zm11.155-2.062l-4.8.76 3.361-7.122c-1.116-.27-2.011-.776-2.684-1.514-.664-.74-1.084-1.668-1.26-2.783-.249-1.57.143-2.895 1.176-3.973 1.042-1.079 2.581-1.78 4.617-2.102l7.564-1.195 2.572 16.262-4.437.701-.957-6.05-2.443.386-2.709 6.63zm-1.029-11.317c.107.679.458 1.17 1.053 1.473.593.294 1.321.373 2.184.236l2.473-.39-.649-4.102-3.04.48c-.727.115-1.271.385-1.631.81-.352.413-.482.91-.39 1.493zm16.64 13.68l-.336-2.124c.749-.228 1.271-.608 1.564-1.142.303-.535.402-1.137.296-1.806l-2.487.394-.734-4.64 4.684-.741.676 4.276c.232 1.465.01 2.702-.665 3.714-.664 1.019-1.663 1.709-2.998 2.069zm-165.809 35.089l2.571 16.263-4.451.703-2.044-12.931-5.891.932 2.044 12.931-4.436.701-2.572-16.262 14.779-2.337zm16.203 14.406c-1.91.302-3.518-.155-4.823-1.37l-.233.037c.37 1.333.572 2.106.605 2.32l1.042 6.589-4.436.701-3.703-23.419 3.607-.57.959 2.01.204-.032c.783-1.774 2.193-2.822 4.229-3.144 1.92-.303 3.541.201 4.861 1.513 1.321 1.312 2.19 3.287 2.607 5.924.274 1.736.256 3.285-.056 4.646-.302 1.36-.87 2.449-1.705 3.266-.835.818-1.887 1.328-3.158 1.529zm-3.413-13.103c-1.096.173-1.842.639-2.239 1.398-.399.748-.485 1.9-.259 3.455l.076.48c.276 1.745.731 2.956 1.364 3.631.643.673 1.528.921 2.652.743 1.988-.314 2.723-2.11 2.205-5.388-.253-1.6-.69-2.758-1.31-3.475-.612-.728-1.442-1.01-2.489-.844zm15.532 2.524c.255 1.61.709 2.785 1.363 3.527.664.74 1.592 1.015 2.785.827 1.183-.187 1.967-.729 2.352-1.625.393-.907.462-2.17.206-3.789-.255-1.61-.707-2.776-1.358-3.498-.651-.722-1.573-.989-2.766-.8-1.183.187-1.973.724-2.369 1.612-.398.878-.469 2.126-.213 3.746zm11.244-1.778c.419 2.647.048 4.828-1.112 6.542-1.161 1.715-2.987 2.769-5.479 3.163-1.561.247-2.992.125-4.292-.365-1.302-.5-2.374-1.34-3.216-2.518-.843-1.179-1.399-2.622-1.669-4.329-.42-2.657-.053-4.832 1.101-6.525 1.153-1.694 2.986-2.739 5.498-3.136 1.561-.247 2.992-.125 4.292.365 1.3.49 2.37 1.32 3.211 2.489.841 1.169 1.396 2.607 1.666 4.314zm13.047-10.367l4.888-.773-5.212 8.815 8.35 7.357-5.033.796-7.951-7.196 1.304 8.247-4.437.702-2.571-16.263 4.436-.701 1.249 7.898 4.977-8.882zm20.681 13.399l-1.208-2.076-.116.019c-.598 1.058-1.265 1.835-2.002 2.329-.729.483-1.729.825-2.999 1.026-1.561.247-2.863-.005-3.906-.754-1.033-.751-1.68-1.951-1.941-3.6-.273-1.726.127-3.091 1.201-4.096 1.082-1.016 2.833-1.76 5.253-2.232l2.808-.533-.112-.713c-.261-1.649-1.235-2.34-2.922-2.073-1.3.206-2.765.84-4.396 1.903l-1.943-2.764c1.717-1.276 3.715-2.094 5.993-2.454 2.182-.345 3.93-.134 5.244.632 1.314.767 2.124 2.12 2.431 4.059l1.714 10.837-3.099.49zm-2.5-7.328l-1.707.329c-1.284.243-2.207.628-2.77 1.154-.563.526-.775 1.226-.637 2.099.197 1.25 1.014 1.763 2.449 1.536 1.028-.163 1.801-.588 2.318-1.276.527-.69.713-1.525.558-2.504l-.211-1.338zm11.508-10.766l.94 5.95c.224 1.416.991 2.02 2.3 1.813a9.304 9.304 0 002.325-.666 17.47 17.47 0 002.106-1.108l-1.111-7.026 4.436-.701 2.572 16.262-4.437.702-1.021-6.459c-.942.706-1.837 1.24-2.684 1.602-.847.363-1.683.609-2.507.74-1.775.28-3.218.046-4.331-.702-1.113-.758-1.803-1.976-2.068-3.654l-.957-6.051 4.437-.702zm19.942-3.153l1.017 6.43c.107.678.258 2.354.452 5.027l5.702-12.59 5.339-.845 2.571 16.263-4.291.678-1.026-6.487c-.182-1.154-.343-2.799-.482-4.934l-5.678 12.557-5.324.842-2.571-16.262 4.291-.679zm32.864-.828c.138.873-.02 1.664-.474 2.372-.447.697-1.19 1.216-2.229 1.56l.019.116c1.175-.047 2.149.207 2.923.76.781.543 1.248 1.294 1.4 2.254.25 1.58-.18 2.886-1.289 3.916-1.111 1.021-2.821 1.714-5.129 2.079l-8.335 1.317-2.571-16.262 8.335-1.318c2.23-.353 3.956-.253 5.176.3 1.229.541 1.954 1.51 2.174 2.906zm-2.995 7.556c-.101-.64-.421-1.061-.96-1.264-.54-.213-1.305-.241-2.294-.085l-3.521.557.608 3.84 3.607-.57c.941-.15 1.626-.437 2.056-.862.437-.437.606-.976.504-1.616zm-1.444-6.496c-.156-.989-1.02-1.36-2.591-1.11l-3.724.588.508 3.215 3.215-.509c.941-.148 1.632-.397 2.074-.745.442-.348.615-.828.518-1.439zm20.708 8.669l-1.207-2.076-.117.019c-.598 1.058-1.265 1.835-2.002 2.33-.729.482-1.728.824-2.999 1.025-1.561.247-2.863-.005-3.906-.754-1.033-.751-1.68-1.951-1.941-3.6-.273-1.726.128-3.091 1.201-4.096 1.082-1.016 2.833-1.76 5.253-2.232l2.808-.533-.112-.713c-.261-1.649-1.235-2.34-2.922-2.073-1.3.206-2.765.84-4.396 1.903l-1.943-2.764c1.717-1.276 3.715-2.093 5.994-2.454 2.181-.345 3.929-.134 5.243.632 1.314.767 2.125 2.12 2.431 4.059l1.714 10.837-3.099.49zm-2.5-7.328l-1.707.33c-1.284.242-2.207.627-2.77 1.153-.563.526-.775 1.226-.637 2.099.197 1.25 1.014 1.763 2.449 1.536 1.028-.163 1.801-.588 2.318-1.276.527-.69.713-1.525.558-2.504l-.211-1.338zm11.9-10.828l1.017 6.43c.107.678.258 2.354.452 5.027l5.703-12.59 5.338-.844 2.571 16.262-4.291.678-1.026-6.487c-.182-1.154-.343-2.799-.481-4.934l-5.678 12.558-5.324.841-2.572-16.262 4.291-.679zm10.095-8.767c.102 1.842-.372 3.274-1.423 4.295-1.053 1.011-2.695 1.694-4.925 2.046-2.298.364-4.063.235-5.294-.385-1.222-.622-2.049-1.863-2.483-3.723l3.972-.628c.225.988.584 1.652 1.075 1.992.499.329 1.306.405 2.422.228.979-.154 1.672-.488 2.078-1 .414-.522.602-1.252.563-2.19l4.015-.635zm16.306 21.56c-5.063.8-8.033-1.577-8.911-7.134-.437-2.764-.082-4.982 1.065-6.654 1.145-1.682 3.003-2.726 5.573-3.132 1.881-.298 3.627-.196 5.236.305l-.766 3.64a20.983 20.983 0 00-2.057-.376 6.206 6.206 0 00-1.848.009c-2.308.365-3.202 2.186-2.684 5.464.503 3.18 1.908 4.588 4.216 4.223a8.145 8.145 0 002.318-.709 8.864 8.864 0 002.012-1.421l.6 3.796a7.22 7.22 0 01-2.032 1.29c-.7.29-1.607.523-2.722.7zm11.154-2.061l-4.8.758 3.362-7.121c-1.117-.27-2.012-.775-2.685-1.514-.664-.74-1.084-1.667-1.26-2.783-.248-1.57.144-2.895 1.176-3.973 1.042-1.079 2.581-1.78 4.618-2.101l7.564-1.196 2.571 16.262-4.437.702-.956-6.052-2.444.387-2.709 6.63zm-1.029-11.318c.107.679.458 1.17 1.053 1.473.593.294 1.321.373 2.184.237l2.473-.391-.649-4.103-3.04.481c-.727.115-1.271.385-1.631.81-.352.413-.482.911-.39 1.493zm16.64 13.68l-.336-2.124c.75-.227 1.271-.608 1.564-1.142.303-.535.402-1.137.296-1.806l-2.487.394-.734-4.64 4.684-.741.676 4.276c.232 1.465.01 2.702-.665 3.714-.664 1.02-1.663 1.709-2.998 2.069zm-207.377 46.03c.138.873-.02 1.663-.474 2.371-.447.697-1.19 1.217-2.229 1.56l.019.117c1.175-.047 2.149.207 2.923.76.781.543 1.248 1.294 1.4 2.254.25 1.581-.18 2.886-1.289 3.916-1.111 1.021-2.821 1.713-5.129 2.078l-8.335 1.318-2.57-16.262 8.334-1.318c2.23-.353 3.956-.253 5.176.3 1.229.541 1.954 1.51 2.174 2.906zm-2.994 7.556c-.102-.64-.422-1.062-.961-1.265-.54-.212-1.305-.241-2.294-.084l-3.52.556.607 3.841 3.607-.571c.941-.149 1.626-.436 2.056-.862.437-.437.606-.975.505-1.615zm-1.445-6.496c-.156-.989-1.02-1.359-2.591-1.111l-3.724.589.508 3.214 3.215-.508c.941-.149 1.632-.397 2.074-.745.442-.349.615-.828.518-1.439zm20.05 5.448l-1.532-9.688-3.331.527a42.628 42.628 0 01-.192 5.293 21.09 21.09 0 01-1.025 4.829l6.08-.961zm8.257 7.998l-3.985.63-.923-5.833-10.938 1.729.922 5.833-3.986.631-1.435-9.077 1.368-.216c.702-1.592 1.195-3.539 1.477-5.84.282-2.301.325-4.887.13-7.759l11.491-1.817 2.059 13.019 2.385-.377 1.435 9.077zm4.101-14.992c.254 1.61.709 2.786 1.363 3.527.663.74 1.591 1.016 2.784.827 1.183-.187 1.967-.728 2.353-1.624.393-.907.462-2.171.205-3.79-.254-1.61-.707-2.776-1.358-3.498-.651-.722-1.572-.989-2.765-.8-1.183.187-1.973.724-2.369 1.612-.398.878-.469 2.127-.213 3.746zm11.244-1.778c.418 2.648.048 4.829-1.113 6.543-1.16 1.714-2.986 2.768-5.478 3.162-1.562.247-2.992.125-4.293-.365-1.301-.5-2.373-1.339-3.216-2.518-.842-1.179-1.398-2.622-1.668-4.328-.42-2.658-.053-4.833 1.1-6.526 1.154-1.693 2.987-2.738 5.498-3.136 1.561-.246 2.992-.125 4.292.366 1.3.49 2.371 1.319 3.212 2.489.841 1.169 1.396 2.607 1.666 4.313zm6.683-1.205l-6.495-7.129 5.033-.796 3.975 4.68 2.367-5.683 5.033-.795-4.037 8.794 6.855 7.429-5.047.798-4.299-5.031-2.552 6.114-5.033.796 4.2-9.177zm17.07-10.855l.988 6.255 6.197-.98-.989-6.255 4.437-.701 2.571 16.262-4.437.702-1.06-6.706-6.196.98 1.06 6.706-4.437.701-2.571-16.262 4.437-.702zm20.103 5.126c.255 1.61.709 2.786 1.363 3.527.664.74 1.592 1.016 2.785.827 1.183-.187 1.967-.728 2.352-1.624.393-.907.462-2.171.206-3.79-.255-1.61-.707-2.776-1.358-3.498-.651-.722-1.573-.989-2.766-.8-1.183.187-1.973.724-2.369 1.612-.398.878-.469 2.127-.213 3.746zm11.244-1.778c.419 2.648.048 4.829-1.112 6.543-1.161 1.714-2.987 2.768-5.479 3.162-1.561.247-2.992.125-4.292-.365-1.302-.5-2.374-1.339-3.216-2.518-.843-1.179-1.399-2.622-1.669-4.329-.42-2.657-.053-4.832 1.101-6.525 1.153-1.693 2.986-2.738 5.498-3.136 1.561-.246 2.992-.125 4.292.365 1.3.491 2.37 1.32 3.211 2.49.841 1.169 1.396 2.607 1.666 4.313zm18.07-6.793c.138.873-.02 1.663-.475 2.371-.446.697-1.189 1.217-2.228 1.56l.018.117c1.176-.047 2.15.206 2.924.76.781.543 1.248 1.294 1.4 2.254.249 1.58-.18 2.886-1.29 3.916-1.111 1.021-2.82 1.713-5.128 2.078l-8.335 1.318-2.571-16.262 8.335-1.318c2.23-.353 3.956-.253 5.176.3 1.229.541 1.953 1.51 2.174 2.906zm-2.995 7.556c-.101-.64-.421-1.062-.96-1.265-.541-.213-1.306-.241-2.295-.084l-3.52.556.607 3.84 3.608-.57c.94-.149 1.626-.436 2.055-.862.438-.437.606-.975.505-1.615zm-1.444-6.496c-.157-.989-1.02-1.36-2.591-1.111l-3.724.589.508 3.214 3.215-.508c.94-.149 1.632-.397 2.074-.745.442-.349.614-.828.518-1.439zm24.941 7.999l-4.437.702-2.044-12.932-4.088.646c.265 3.686.316 6.461.154 8.326-.164 1.854-.556 3.243-1.175 4.166-.612.912-1.518 1.463-2.721 1.653-1.028.163-1.896.141-2.605-.065l-.561-3.55c.506.119.997.141 1.472.066.553-.087.95-.558 1.193-1.411.253-.855.378-2.232.376-4.13.006-1.909-.141-4.505-.441-7.788l12.306-1.945 2.571 16.262zm7.142-1.129l-4.8.759 3.362-7.122c-1.117-.271-2.011-.775-2.685-1.514-.664-.74-1.084-1.667-1.26-2.782-.248-1.571.144-2.896 1.176-3.973 1.042-1.08 2.581-1.78 4.618-2.102l7.564-1.196 2.571 16.262-4.437.702-.956-6.051-2.444.386-2.709 6.631zm-1.029-11.318c.107.679.458 1.17 1.053 1.474.593.293 1.321.372 2.184.236l2.473-.391-.648-4.102-3.041.48c-.727.115-1.271.385-1.631.81-.352.414-.482.911-.39 1.493zm17.935-8.024l1.016 6.429c.108.679.258 2.355.452 5.028l5.703-12.591 5.339-.844 2.571 16.262-4.291.679-1.026-6.488c-.183-1.154-.343-2.798-.482-4.933l-5.678 12.557-5.324.842-2.571-16.263 4.291-.678zm10.094-8.768c.103 1.843-.372 3.275-1.423 4.296-1.053 1.011-2.694 1.693-4.925 2.046-2.298.363-4.063.234-5.294-.386-1.222-.622-2.049-1.863-2.482-3.723l3.971-.627c.226.988.584 1.652 1.075 1.991.5.329 1.307.405 2.422.229.979-.155 1.672-.488 2.078-1 .415-.522.602-1.253.563-2.191l4.015-.635zm16.306 21.561c-5.062.8-8.032-1.578-8.911-7.135-.437-2.763-.082-4.981 1.065-6.654 1.146-1.682 3.003-2.726 5.573-3.132 1.881-.298 3.627-.196 5.237.305l-.766 3.64a21.103 21.103 0 00-2.058-.376 6.21 6.21 0 00-1.847.009c-2.308.365-3.203 2.186-2.685 5.464.503 3.181 1.909 4.589 4.217 4.224a8.159 8.159 0 002.318-.71 8.831 8.831 0 002.011-1.421l.601 3.797a7.227 7.227 0 01-2.033 1.29c-.699.29-1.607.522-2.722.699zm11.154-2.062l-4.8.759 3.362-7.122c-1.116-.27-2.011-.775-2.685-1.514-.663-.739-1.083-1.667-1.26-2.782-.248-1.571.144-2.896 1.176-3.973 1.042-1.079 2.582-1.78 4.618-2.102l7.564-1.196 2.571 16.263-4.436.701-.957-6.051-2.444.386-2.709 6.631zm-1.029-11.318c.108.679.459 1.17 1.053 1.474.594.294 1.322.372 2.185.236l2.473-.391-.649-4.102-3.04.481c-.727.115-1.271.384-1.632.809-.352.414-.482.911-.39 1.493zm15.252 2.166l-2.327-14.72 4.407-.698 2.328 14.721-4.408.697zm.963 6.751l-.735-4.655 4.611-.729.736 4.655-4.612.729z" fill="#000"/></svg>