<svg width="265" height="289" fill="none" xmlns="http://www.w3.org/2000/svg"><path d="M145.235 57.208c-1.002 1.289-4.88-.671-5.233-.85-1.072-.542-1.616-.826-1.877-1.428-.892-2.033 1.72-6.057 3.712-5.835 1.47.162 2.246 2.596 3.072 5.186.479 1.5.747 2.383.326 2.927z" fill="#000"/><path d="M139.014 53.515c-.931.254-1.774-.49-2.667-1.301-1.086-.986-2.422-2.644-2.111-3.055.174-.233 1.145.217 3.08 1.126 2.584 1.213 2.899 1.58 2.906 1.96.014.557-.628 1.111-1.208 1.27zm2.188-2.25c-.851-.455-.953-1.575-1.044-2.778-.111-1.462.057-3.585.566-3.67.286-.05.682.945 1.464 2.935 1.043 2.656 1.021 3.139.765 3.42-.374.414-1.221.376-1.751.093z" fill="#000"/><path d="M139.658 51.415c-.957-.002-1.597-.95-2.27-1.978-.816-1.247-1.715-3.215-1.319-3.532.222-.18 1.054.52 2.711 1.917 2.207 1.869 2.426 2.308 2.344 2.682-.118.546-.869.912-1.466.911z" fill="#000"/><path d="M213.571 125.803c-3.741-3.162-47.533-28.53-69.165-69.197m104.552 117.407c3.06 11.396 15.722 43.557 41.886 81.034" stroke="#000" stroke-width="1.632" stroke-linecap="round" stroke-linejoin="round"/><path d="M200.234 52.13c-5.315 4.547-12.604 7.994-15.584 9.149-4.463 2.014-8.271 4.874-4.781 11.383 3.491 6.508 23.908 2.706 28.741 1.075 4.833-1.631 11.501-.225 14.479-.654 2.978-.428 1.29-5.096 3.771-4 2.48 1.094 4.576 6.812-5.263 12.32-7.871 4.405-20.967 6.334-26.565 6.66-.456 4.099 7.798 7.779 11.386 20.737 3.587 12.957 22.356 58.293 27.035 66.045 4.678 7.752 9.333 6.187 14.322 4.253 4.99-1.934 34.855-10.641 41.233-14.548 6.377-3.907-3.977-26.916-8.341-36.942-4.365-10.026-25.083-66.563-37.645-76.76-12.561-10.196-36.143-4.403-42.788 1.281z" fill="#fff" stroke="#000" stroke-width="1.632" stroke-linecap="round" stroke-linejoin="round"/><path d="M264.943 87.445c9.84 3.034 28.978 12.246 26.811 24.824-2.71 15.724-38.5 2.346-44.984-8.975" stroke="#000" stroke-width="1.632" stroke-linecap="round" stroke-linejoin="round"/><path d="M247.889 102.939c-.003-1.561-1.577-2.982-4.725-5.764-2.91-2.57-4.6-4.036-5.676-3.616-.908.35-.997 1.889-.8 2.882.554 2.825 4.068 4.662 4.975 5.134 2.079 1.086 4.13 1.46 4.114 1.572-.015.112-1.87-.663-3.565-.107-1.318.433-2.492 1.655-2.155 2.441.422.976 3.305 1.524 5.326.66.207-.088 2.508-1.121 2.506-3.202z" fill="#000" stroke="#000" stroke-width="1.02" stroke-miterlimit="10"/><path d="M204.29 66.54a1.386 1.386 0 01-1.892-.572 1.427 1.427 0 01.606-1.907 1.386 1.386 0 011.892.572 1.427 1.427 0 01-.606 1.906zm-16.105 2.154a1.386 1.386 0 01-1.892-.572 1.427 1.427 0 01.605-1.907 1.387 1.387 0 011.893.572 1.427 1.427 0 01-.606 1.907z" fill="#000"/><path fill-rule="evenodd" clip-rule="evenodd" d="M31.883 55.132C18.103 57.38 8.766 70.372 11.029 84.15c2.264 13.778 15.27 23.124 29.05 20.875l71.106-11.604a25.143 25.143 0 0013.395-6.674L139.113 86l-7.507-11.297a25.187 25.187 0 00.432-10.3c-2.263-13.778-15.269-23.124-29.049-20.875L31.883 55.132z" fill="#fff"/><path d="M11.03 84.15l.347-.056-.348.057zm20.853-29.018l.056.347-.056-.347zm8.196 49.894l.056.347-.056-.347zm71.106-11.604l.057.348-.057-.348zm13.395-6.674l-.018-.352-.131.007-.095.09.244.255zM139.113 86l.018.351.617-.032-.342-.514-.293.195zm-7.507-11.297l-.341-.086-.039.151.087.13.293-.195zm.432-10.3l-.347.057.347-.057zm-29.049-20.875l-.057-.347.057.347zM11.377 84.094C9.145 70.508 18.35 57.697 31.939 55.479l-.113-.695c-13.972 2.28-23.439 15.454-21.144 29.424l.695-.114zm28.645 20.585c-13.588 2.217-26.414-6.999-28.645-20.585l-.695.114c2.295 13.97 15.481 23.446 29.453 21.165l-.113-.694zm71.106-11.604l-71.106 11.604.114.694 71.106-11.603-.114-.695zm13.208-6.581a24.789 24.789 0 01-13.208 6.58l.114.696a25.499 25.499 0 0013.582-6.768l-.488-.508zm14.759-.846l-14.533.748.036.703 14.533-.748-.036-.703zm-7.782-10.75l7.507 11.296.586-.39-7.507-11.296-.586.39zm.378-10.438a24.823 24.823 0 01-.426 10.157l.682.173a25.55 25.55 0 00.439-10.444l-.695.114zm-28.646-20.585c13.589-2.217 26.414 6.999 28.646 20.585l.695-.114c-2.295-13.97-15.482-23.446-29.454-21.166l.113.695zM31.939 55.48l71.106-11.604-.113-.694-71.106 11.603.113.695zm14.243 16.107a3.237 3.237 0 01-1.634-.14 2.876 2.876 0 01-1.27-.895 3.114 3.114 0 01-.63-1.47c-.136-.86.042-1.618.532-2.276.49-.658 1.176-1.056 2.057-1.196.874-.138 1.646.03 2.315.505.67.474 1.073 1.141 1.209 2.001.134.853-.046 1.612-.543 2.278-.49.658-1.17 1.055-2.036 1.192zm-.227-1.437c.44-.07.778-.27 1.012-.6.233-.338.314-.734.242-1.189-.072-.454-.27-.802-.595-1.045-.326-.249-.713-.338-1.16-.268-.44.07-.777.274-1.01.611-.235.331-.316.724-.244 1.178.035.224.103.428.204.613.108.183.239.33.393.443a1.497 1.497 0 001.158.257zm6.529-5.288c.832-.131 1.539.015 2.122.439.583.423.939 1.044 1.068 1.862.136.86-.027 1.594-.49 2.205-.463.603-1.146.976-2.047 1.119-.972.154-1.77-.025-2.395-.535-.627-.517-1.026-1.32-1.198-2.411-.198-1.251-.085-2.28.34-3.084.43-.813 1.195-1.454 2.296-1.922l1.815-.76.237 1.5-1.804.758c-.893.377-1.372.908-1.436 1.592a2.637 2.637 0 011.492-.763zm-.674 3.965c.316.23.68.311 1.093.246.419-.066.743-.257.973-.573.23-.316.31-.683.245-1.103-.067-.419-.258-.743-.573-.973a1.392 1.392 0 00-1.094-.257c-.28.044-.522.147-.725.308a1.39 1.39 0 00-.431.606 1.541 1.541 0 00-.06.772c.066.42.257.744.572.974zm8.143-5.382l1.635-.259-1.59 5.98c-.226.838-.496 1.443-.81 1.815-.314.372-.781.607-1.404.706l-.629.099-.218-1.384.534-.085c.364-.057.612-.164.745-.321.133-.158.255-.467.369-.93l.014-.044-3.228-4.853 1.667-.263 2.06 3.242.855-3.703zm5.436-.86l1.49-.235.894 5.661-1.488.236-.29-1.835c-.305.156-.64.262-1.003.32-.727.115-1.34-.007-1.842-.364-.494-.367-.8-.916-.916-1.65l-.252-1.594 1.5-.237.255 1.615c.109.692.496.985 1.16.88a1.84 1.84 0 00.877-.364l-.385-2.433zm7.582-1.21l1.143-.18.895 5.662-1.206.19-.205-.483c-.447.53-1.023.85-1.729.961-.853.135-1.607-.036-2.263-.513-.65-.484-1.042-1.157-1.178-2.016-.135-.853.032-1.607.502-2.261.477-.656 1.141-1.051 1.994-1.186.72-.114 1.375.019 1.965.398l.082-.571zm-2.386 4.419c.34.247.73.336 1.17.266.448-.07.795-.276 1.042-.616.248-.34.336-.734.265-1.181-.07-.447-.276-.795-.616-1.042a1.513 1.513 0 00-1.17-.266 1.562 1.562 0 00-.764.336c-.21.169-.362.383-.457.642a1.566 1.566 0 00-.075.817c.07.448.272.796.605 1.044zm8.722-7.397l.18 1.132-2.884.456-.18-1.133 2.884-.455zm.401 1.924l.86-.136.895 5.662-1.478.234-.474-2.999-2.158 3.415-.87.137-.895-5.661 1.478-.234.47 2.967 2.172-3.385zm5.882 5.035c-.56.088-1.09.04-1.592-.146a2.975 2.975 0 01-1.252-.92 3.115 3.115 0 01-.63-1.47c-.134-.845.04-1.596.524-2.253.484-.657 1.156-1.053 2.015-1.19.734-.115 1.397-.002 1.989.342.59.337 1.01.843 1.261 1.52l-1.52.24a1.477 1.477 0 00-.657-.551 1.444 1.444 0 00-.856-.112 1.393 1.393 0 00-.968.604c-.227.337-.305.725-.235 1.166.07.44.268.789.595 1.045.327.256.693.352 1.099.288.307-.048.567-.172.78-.37.21-.206.358-.472.442-.8l1.542-.245c-.026.742-.27 1.376-.732 1.9-.462.517-1.064.835-1.805.952zm4.721-6.711l2.82-.446.896 5.662-1.468.232-.31-1.961-.891.14-.78 2.134-1.636.258.917-2.423a1.886 1.886 0 01-.817-.548 1.784 1.784 0 01-.386-.874 1.794 1.794 0 01.345-1.419c.314-.415.751-.667 1.31-.755zm.683 2.482l1.07-.17-.208-1.31-1.07.17c-.223.035-.391.126-.504.273a.627.627 0 00-.114.501c.02.126.065.233.136.322a.598.598 0 00.278.193c.12.038.258.045.412.02zm4.733 4.163l-.118-.745a.996.996 0 00.433-.25.734.734 0 00.211-.367.962.962 0 00.02-.422l-.882.139-.258-1.636 1.646-.26.239 1.51c.082.517.003.952-.234 1.305-.23.359-.583.6-1.057.726zM32.47 78.927l5.116-.81.895 5.663-1.52.24-.676-4.278-2.076.328.676 4.278-1.52.24-.895-5.661zm9.651-1.687c.853-.135 1.604.036 2.253.514.655.477 1.051 1.145 1.187 2.005.136.86-.034 1.62-.51 2.283-.476.656-1.137 1.05-1.983 1.184a2.743 2.743 0 01-1.637-.225l.372 2.349-1.531.242-1.219-7.706 1.017-.16.344.471c.432-.526 1.002-.846 1.707-.957zm-.589 4.295c.34.247.73.336 1.171.266.447-.07.795-.276 1.042-.616.247-.34.335-.734.264-1.181a1.625 1.625 0 00-.325-.765 1.434 1.434 0 00-.643-.468 1.567 1.567 0 00-.818-.075 1.624 1.624 0 00-.765.325c-.217.17-.373.385-.468.644-.089.257-.11.533-.063.826.07.448.273.796.605 1.044zm8.283.614a3.238 3.238 0 01-1.634-.14 2.877 2.877 0 01-1.27-.895 3.115 3.115 0 01-.63-1.47c-.136-.859.041-1.618.532-2.276.49-.657 1.176-1.056 2.057-1.195.873-.139 1.645.03 2.315.504.67.474 1.072 1.142 1.208 2.001.135.853-.046 1.612-.542 2.278-.49.658-1.17 1.056-2.036 1.193zm-.227-1.436c.44-.07.777-.27 1.011-.601.234-.338.314-.734.243-1.188-.072-.455-.27-.803-.596-1.045-.326-.25-.712-.339-1.16-.268-.44.07-.777.273-1.01.61-.234.332-.315.724-.243 1.178.035.224.103.428.204.613.108.183.238.331.392.443.154.112.328.192.522.24.2.047.413.053.637.018zm9.557-.2l-1.845.291-2.252-2.416.428 2.705-1.53.242-.896-5.662 1.53-.242.398 2.516L56.3 75.16l1.74-.275-1.49 3.008 2.595 2.62zm4.158-6.472l1.143-.18.895 5.661-1.206.19-.205-.483a2.74 2.74 0 01-1.729.961c-.852.135-1.607-.036-2.262-.512-.65-.485-1.043-1.157-1.179-2.017-.135-.853.033-1.606.502-2.261.477-.656 1.142-1.051 1.995-1.186.72-.114 1.375.02 1.965.399l.081-.572zm-2.386 4.418c.34.247.73.336 1.171.266.447-.07.795-.276 1.042-.616.247-.34.335-.733.264-1.18-.07-.448-.276-.795-.616-1.043-.34-.247-.73-.335-1.17-.266a1.562 1.562 0 00-.764.336c-.21.17-.362.383-.457.642a1.567 1.567 0 00-.075.818c.07.447.273.795.605 1.043zm8.044-5.302l1.488-.235.896 5.662-1.49.235-.29-1.835a3.324 3.324 0 01-1.002.32c-.727.115-1.34-.007-1.841-.365-.495-.365-.8-.915-.917-1.65l-.252-1.593 1.5-.237.255 1.615c.11.692.496.985 1.16.88a1.84 1.84 0 00.877-.364l-.384-2.433zm7.08-1.12l.86-.135.894 5.662-1.478.233-.474-2.998-2.158 3.414-.87.138-.895-5.662 1.478-.233.47 2.967 2.172-3.385zm6.817 1.642c.277.078.504.221.68.43.183.2.297.45.345.751.076.482-.031.915-.322 1.297-.284.375-.685.603-1.202.685l-3.093.49-.895-5.663 3.061-.484c.482-.076.899-.002 1.25.222.356.216.567.534.634.953.04.252.017.495-.068.73a1.402 1.402 0 01-.39.589zm-1.002-.83a.524.524 0 00-.118-.272.465.465 0 00-.24-.156.578.578 0 00-.305-.027l-1.143.181.173 1.09 1.143-.18a.56.56 0 00.384-.222.517.517 0 00.106-.415zm-.067 2.837c.189-.03.331-.103.427-.219a.555.555 0 00.102-.445.568.568 0 00-.236-.404.64.64 0 00-.475-.086l-1.217.193.183 1.153 1.216-.192zm7.224-5.71l1.143-.18.895 5.66-1.206.192-.205-.484c-.447.53-1.023.85-1.729.961-.853.135-1.607-.036-2.263-.512-.65-.485-1.042-1.157-1.178-2.017-.135-.853.032-1.606.502-2.261.477-.656 1.141-1.051 1.994-1.186.72-.114 1.375.02 1.965.399l.082-.572zm-2.386 4.418c.34.247.73.336 1.17.266.448-.07.795-.276 1.042-.616.248-.34.336-.733.265-1.18-.07-.448-.276-.795-.616-1.043-.34-.247-.73-.335-1.17-.266a1.561 1.561 0 00-.764.336c-.21.17-.362.383-.458.642a1.566 1.566 0 00-.074.818c.07.447.272.795.605 1.043zm8.722-7.397l.18 1.132-2.884.456-.18-1.132 2.884-.456zm.401 1.924l.86-.135.895 5.661-1.478.234-.474-2.999-2.158 3.415-.87.138-.895-5.662 1.478-.234.47 2.967 2.172-3.385zm5.882 5.035c-.559.088-1.09.04-1.592-.146a2.976 2.976 0 01-1.253-.92 3.116 3.116 0 01-.63-1.469c-.133-.846.042-1.597.525-2.254.484-.657 1.156-1.053 2.015-1.189.734-.116 1.397-.002 1.989.341.59.337 1.011.843 1.261 1.52l-1.52.24a1.476 1.476 0 00-.657-.551 1.443 1.443 0 00-.856-.112 1.394 1.394 0 00-.968.605c-.227.336-.305.725-.235 1.165.07.44.268.789.595 1.045a1.36 1.36 0 001.099.288 1.44 1.44 0 00.779-.37c.212-.205.359-.472.443-.8l1.542-.244c-.026.742-.27 1.375-.732 1.9-.462.517-1.064.834-1.805.95zm4.721-6.711l2.821-.446.895 5.662-1.468.232-.31-1.96-.891.14-.781 2.133-1.635.259.917-2.424a1.88 1.88 0 01-.817-.547 1.783 1.783 0 01-.386-.874 1.795 1.795 0 01.345-1.42c.314-.415.751-.667 1.31-.755zm.683 2.482l1.069-.17-.207-1.31-1.069.17c-.224.035-.392.126-.505.273a.626.626 0 00-.114.501.658.658 0 00.137.323.593.593 0 00.277.192.893.893 0 00.412.021zm4.733 4.163l-.118-.745a.994.994 0 00.433-.25.73.73 0 00.211-.367.954.954 0 00.019-.422l-.88.139-.259-1.636 1.646-.26.239 1.51c.081.517.003.952-.235 1.305-.229.359-.582.6-1.056.726zM39.443 91.68c.278.078.504.221.68.43.183.2.298.45.345.751a1.64 1.64 0 01-.321 1.298c-.285.374-.686.602-1.203.684l-3.093.49-.895-5.662 3.061-.485c.482-.076.899-.002 1.25.222.356.216.567.534.634.953.04.251.017.495-.067.73a1.404 1.404 0 01-.39.589zm-1.002-.83a.523.523 0 00-.118-.272.465.465 0 00-.24-.156.58.58 0 00-.304-.026l-1.143.18.172 1.09 1.143-.18a.56.56 0 00.384-.222.516.516 0 00.106-.414zm-.067 2.837a.674.674 0 00.428-.218.554.554 0 00.101-.446.567.567 0 00-.236-.404.64.64 0 00-.475-.086l-1.217.193.183 1.153 1.216-.192zm8.408-1.555l.692-.11.432 2.737-1.384.218-.205-1.3-3.544.56.205 1.3-1.394.221-.433-2.736.587-.093c.19-.21.293-.573.312-1.092.025-.52-.018-1.609-.13-3.268l4.194-.663.668 4.226zm-3.308-2.433c.08.869.108 1.523.085 1.964-.024.44-.103.78-.237 1.016l1.96-.31-.456-2.884-1.352.214zm8.018 3.321a3.237 3.237 0 01-1.634-.139 2.876 2.876 0 01-1.27-.895 3.114 3.114 0 01-.63-1.47c-.136-.86.041-1.618.532-2.276.49-.658 1.176-1.057 2.057-1.196.873-.138 1.645.03 2.315.505.67.474 1.072 1.141 1.208 2 .135.854-.046 1.613-.542 2.279-.491.658-1.17 1.055-2.036 1.192zm-.227-1.436c.44-.07.777-.27 1.011-.6.234-.338.314-.734.242-1.189-.071-.454-.27-.802-.595-1.045-.326-.25-.712-.338-1.16-.268-.44.07-.777.273-1.01.611-.234.331-.315.724-.244 1.178.036.224.104.428.205.612.108.184.238.332.392.444.154.111.328.191.522.24.2.047.413.052.636.017zm9.091-.126l-1.73.273-1.418-1.7-.857 2.06-1.688.267 1.47-3.21-2.24-2.472 1.73-.273 1.245 1.48.79-1.802 1.688-.267-1.412 2.964 2.422 2.68zm3.434-6.347l1.531-.242.895 5.662-1.53.242-.344-2.17-2.055.325.343 2.17-1.53.242-.895-5.662 1.53-.242.332 2.097 2.055-.325-.332-2.097zm6.613 4.92a3.238 3.238 0 01-1.634-.14 2.876 2.876 0 01-1.27-.895 3.115 3.115 0 01-.63-1.47c-.136-.86.041-1.618.532-2.276.49-.658 1.176-1.057 2.057-1.196.874-.138 1.645.03 2.315.504.67.475 1.072 1.142 1.208 2.002.135.852-.046 1.612-.542 2.278-.49.658-1.17 1.055-2.036 1.192zm-.227-1.437c.44-.07.777-.27 1.011-.6.234-.338.314-.734.243-1.189-.072-.454-.27-.803-.596-1.045-.326-.25-.712-.339-1.16-.268-.44.07-.777.273-1.01.611-.234.331-.315.724-.243 1.178.035.224.103.428.204.612a1.422 1.422 0 00.914.683c.2.047.413.053.637.018zm7.95-3.03c.277.078.504.22.68.43.182.2.297.45.344.751.077.482-.03.915-.321 1.297-.285.375-.686.603-1.203.685l-3.093.489-.895-5.662 3.061-.484c.483-.076.9-.002 1.25.222a1.3 1.3 0 01.634.953c.04.251.017.495-.067.73a1.403 1.403 0 01-.39.589zm-1.002-.83a.523.523 0 00-.119-.272.465.465 0 00-.24-.156.579.579 0 00-.304-.027l-1.143.181.172 1.09 1.143-.18a.56.56 0 00.384-.222.517.517 0 00.107-.415zm-.068 2.837c.189-.03.332-.103.428-.219a.554.554 0 00.101-.446.568.568 0 00-.235-.403.64.64 0 00-.476-.086l-1.216.192.182 1.154 1.216-.193zm3.62-5.13l4.046-.64.896 5.662-1.5.238-.684-4.33-1.3.205.13 2.043c.05.866-.081 1.506-.396 1.921-.314.415-.841.681-1.582.799l-.252.04-.219-1.385.378-.06a.703.703 0 00.49-.302c.116-.17.167-.392.151-.67l-.159-3.52zm7.266-1.148l2.82-.446.895 5.662-1.468.232-.31-1.961-.89.14-.781 2.134-1.636.258.917-2.423a1.886 1.886 0 01-.817-.548 1.784 1.784 0 01-.385-.874 1.794 1.794 0 01.345-1.419c.314-.415.75-.667 1.31-.755zm.682 2.482l1.07-.17-.208-1.31-1.069.17c-.224.035-.392.126-.505.272a.626.626 0 00-.114.502c.02.126.066.233.137.322a.598.598 0 00.278.193c.12.038.257.045.411.02zm7.327-5.737l.179 1.133-2.883.455-.18-1.132 2.884-.456zm.401 1.925l.86-.136.895 5.662-1.478.233-.475-2.998-2.157 3.414-.87.138-.895-5.661 1.478-.234.469 2.967 2.173-3.385zm5.882 5.034c-.559.089-1.09.04-1.592-.145a2.973 2.973 0 01-1.253-.92 3.116 3.116 0 01-.63-1.47c-.133-.845.042-1.597.525-2.253.484-.657 1.156-1.053 2.015-1.19.734-.116 1.397-.002 1.989.342.59.336 1.011.843 1.261 1.52l-1.52.24a1.478 1.478 0 00-.657-.552 1.444 1.444 0 00-.856-.111 1.39 1.39 0 00-.968.604c-.227.337-.305.725-.235 1.166.069.44.268.788.595 1.045.327.256.693.352 1.099.288.307-.049.567-.172.779-.37a1.67 1.67 0 00.443-.801l1.541-.244c-.026.742-.269 1.375-.731 1.9-.463.517-1.064.834-1.805.951zm4.721-6.71l2.82-.446.896 5.661-1.468.232-.31-1.96-.891.14-.781 2.134-1.635.258.917-2.423a1.889 1.889 0 01-.818-.548 1.79 1.79 0 01-.385-.874 1.795 1.795 0 01.345-1.42c.314-.414.751-.666 1.31-.754zm.683 2.481l1.069-.169-.207-1.31-1.07.169c-.223.035-.392.126-.504.273a.63.63 0 00-.115.502c.02.126.066.233.137.322a.6.6 0 00.278.193.893.893 0 00.412.02zm4.253.112l-.819-5.179 1.552-.245.819 5.18-1.552.245zm.333 2.377l-.259-1.636 1.626-.257.258 1.636-1.625.257z" fill="#000"/></svg>