<svg width="353" height="431" fill="none" xmlns="http://www.w3.org/2000/svg"><path d="M230.44 58.426c-38.088 6.688-76.547-15.991-91.016-28.167l-46.08 145.677c32.568 23.983 54.752 32.396 105.898 27.113 40.917-4.226 76.816 23.071 89.65 37.248 12.852-37.113 34.097-115.547 43.114-150.125C309.645 64.8 278.05 50.066 230.44 58.426z" fill="#004EC2" stroke="#000" stroke-width="2.858" stroke-linejoin="round"/><mask id="mask0_1188_72" style="mask-type:alpha" maskUnits="userSpaceOnUse" x="91" y="28" width="243" height="214"><path d="M230.44 58.425c-38.088 6.688-76.547-15.991-91.016-28.166l-46.08 145.676c32.568 23.983 54.752 32.396 105.898 27.113 40.917-4.226 76.816 23.071 89.65 37.248 12.852-37.113 34.097-115.547 43.114-150.125C309.645 64.8 278.05 50.065 230.44 58.425z" fill="#004EC2" stroke="#000" stroke-width="2.858" stroke-linejoin="round"/></mask><g mask="url(#mask0_1188_72)" fill="#F45009" stroke="#fff" stroke-width="8.573" stroke-linejoin="round"><path d="M178.054 142.083c3.999 1.065 7.639 1.962 10.629 2.576l-13.281 56.116a4.287 4.287 0 004.611 5.251l19.397-1.998a4.288 4.288 0 003.719-3.222c1.953-7.791 5.112-19.844 8.237-30.667 1.564-5.415 3.107-10.484 4.48-14.543.761-2.252 1.427-4.058 1.975-5.403 15.15 2.608 48.058 10.267 79.875 24.055a4.286 4.286 0 005.663-2.288c.41-.986 2.098-6.039 3.934-11.593a4758.517 4758.517 0 005.443-16.596 4.287 4.287 0 00-2.711-5.391c-18.955-6.368-60.236-19.673-81.676-24.634 1.754-8.404 4.092-19.43 6.242-29.22 1.265-5.754 2.46-11.063 3.433-15.154.487-2.048.913-3.769 1.26-5.078.174-.656.323-1.187.445-1.593.061-.203.111-.361.151-.48.043-.126.062-.172.058-.164a4.288 4.288 0 00-4.258-5.92l-20.717 1.45a4.285 4.285 0 00-3.845 3.183l-12.364 46.924c-9.623-2.157-23.101-5.424-36.32-9.124-15.302-4.284-29.824-9.033-37.748-13.203a4.288 4.288 0 00-5.955 2.148l-11.513 27.71a4.286 4.286 0 002.595 5.708c11.342 3.808 29.098 9.596 45.519 14.588 8.207 2.495 16.109 4.8 22.722 6.562zm67.93-25.68a4.289 4.289 0 004.062-.419c10.362-7.076 39.168-21.651 70.064-22.575a4.288 4.288 0 002.802-7.414L314 77.651a4.286 4.286 0 00-3.466-1.124c-13.749 1.733-47.901 9.69-75.808 27.944a4.286 4.286 0 00.702 7.546l10.556 4.386z"/><path d="M95.632 178.488a4.287 4.287 0 01.835-8.169c12.524-2.408 39.974-9.038 68.197-29.751a4.288 4.288 0 014.181-.502l9.897 4.111a4.287 4.287 0 01.511 7.664c-3.157 1.836-6.204 3.677-9.244 5.512-15.436 9.323-30.678 18.528-59.034 26.509a4.292 4.292 0 01-2.806-.167l-12.537-5.207zm201.1 46.664c.436-1.05.437-2.23.003-3.281-9.535-23.09-18.637-35.328-29.166-49.484-2.513-3.378-5.107-6.865-7.807-10.636a4.287 4.287 0 00-2.223-1.6l-14.403-4.437a4.285 4.285 0 00-4.503 6.901c23.691 27.375 33.066 44.864 45.553 73.792a4.287 4.287 0 007.894-.055l4.652-11.2zM131.871 43.235a4.291 4.291 0 00.188 3.684c10.824 20.02 16.968 27.71 24.197 36.755 3.321 4.156 6.87 8.598 11.208 14.654a4.285 4.285 0 002.513 1.679l12.698 2.955a4.287 4.287 0 004.219-6.973h0l-.007-.008c-12.066-13.942-18.715-21.632-24.507-29.689-5.768-8.024-10.726-16.473-19.284-31.947a4.285 4.285 0 00-7.709.43l-3.516 8.46z"/></g><path d="M230.44 58.426c-38.088 6.688-76.547-15.991-91.016-28.167l-46.08 145.677c32.568 23.983 54.752 32.396 105.898 27.113 40.917-4.226 76.816 23.071 89.65 37.248 12.852-37.113 34.097-115.547 43.114-150.125C309.645 64.8 278.05 50.066 230.44 58.426z" stroke="#000" stroke-width="2.858" stroke-linejoin="round"/><path d="M26.951 351.243c-1.81-7.56 71.716-218.542 108.705-323.088 6.765-5.854 7.657-.429 7.257 3.015-31.706 93.073-96.665 283.683-102.846 301.539-7.726 22.32-10.853 27.984-13.116 18.534z" fill="#939393" stroke="#000" stroke-width="2.858" stroke-linejoin="round"/><circle cx="142.731" cy="18.575" r="5.715" transform="rotate(22.562 142.731 18.575)" fill="#939393" stroke="#000" stroke-width="2.858" stroke-linejoin="round"/></svg>