<svg width="137" height="140" fill="none" xmlns="http://www.w3.org/2000/svg"><mask id="path-1-inside-1_1184_232" fill="#fff"><path d="M32.142 127.943c14.385 9.483 31.708 13.127 48.53 10.208 16.82-2.919 31.909-12.188 42.268-25.966 10.36-13.778 15.233-31.057 13.652-48.407-1.581-17.349-9.501-33.5-22.186-45.244C101.72 6.79 85.196.311 68.116.384c-17.08.072-33.468 6.69-45.909 18.541C9.767 30.776 2.182 46.993.96 64.355c-1.22 17.36 4.01 34.597 14.654 48.285L37.35 95.127c-6.297-8.099-9.392-18.295-8.669-28.566.723-10.27 5.21-19.864 12.57-26.875 7.36-7.01 17.055-10.927 27.159-10.97 10.105-.042 19.88 3.79 27.384 10.739 7.505 6.947 12.19 16.502 13.125 26.765.936 10.264-1.947 20.486-8.076 28.637-6.129 8.151-15.055 13.634-25.006 15.361-9.95 1.727-20.199-.428-28.71-6.039l-14.985 23.764z"/></mask><path d="M32.142 127.943c14.385 9.483 31.708 13.127 48.53 10.208 16.82-2.919 31.909-12.188 42.268-25.966 10.36-13.778 15.233-31.057 13.652-48.407-1.581-17.349-9.501-33.5-22.186-45.244C101.72 6.79 85.196.311 68.116.384c-17.08.072-33.468 6.69-45.909 18.541C9.767 30.776 2.182 46.993.96 64.355c-1.22 17.36 4.01 34.597 14.654 48.285L37.35 95.127c-6.297-8.099-9.392-18.295-8.669-28.566.723-10.27 5.21-19.864 12.57-26.875 7.36-7.01 17.055-10.927 27.159-10.97 10.105-.042 19.88 3.79 27.384 10.739 7.505 6.947 12.19 16.502 13.125 26.765.936 10.264-1.947 20.486-8.076 28.637-6.129 8.151-15.055 13.634-25.006 15.361-9.95 1.727-20.199-.428-28.71-6.039l-14.985 23.764z" fill="#FAFAFA" stroke="#000" stroke-width="4" mask="url(#path-1-inside-1_1184_232)"/></svg>