<svg width="104" height="103" fill="none" xmlns="http://www.w3.org/2000/svg"><mask id="path-1-inside-1_1184_202" fill="#fff"><path d="M24.278 94.607a51.476 51.476 0 0036.661 7.447 51.448 51.448 0 0032.014-19.341 51.372 51.372 0 00-6.23-69.366A51.462 51.462 0 0051.776.01a51.461 51.461 0 00-34.748 13.85 51.373 51.373 0 00-5.207 69.45l16.472-13.03a30.392 30.392 0 013.08-41.086 30.444 30.444 0 0141.232-.303 30.391 30.391 0 013.685 41.036 30.45 30.45 0 01-40.627 7.037L24.278 94.607z"/></mask><path d="M24.278 94.607a51.476 51.476 0 0036.661 7.447 51.448 51.448 0 0032.014-19.341 51.372 51.372 0 00-6.23-69.366A51.462 51.462 0 0051.776.01a51.461 51.461 0 00-34.748 13.85 51.373 51.373 0 00-5.207 69.45l16.472-13.03a30.392 30.392 0 013.08-41.086 30.444 30.444 0 0141.232-.303 30.391 30.391 0 013.685 41.036 30.45 30.45 0 01-40.627 7.037L24.278 94.607z" fill="#FAFAFA" stroke="#000" stroke-width="4" mask="url(#path-1-inside-1_1184_202)"/></svg>