<svg width="355" height="181" fill="none" xmlns="http://www.w3.org/2000/svg"><mask id="path-1-outside-1_1188_99" maskUnits="userSpaceOnUse" x="-26.642" y="-2.561" width="384.67" height="185.906" fill="#000"><path fill="#fff" d="M-26.642-2.561h384.67v185.906h-384.67z"/><path d="M48.989 157.57c1.948-3.56 4.408-8.934 3.382-13.008-1.027-4.075-5.739-6.438-9.894-5.391-3.53.889-5.62 3.883-7.327 7.201-2.688 5.191-4.452 8.043-10.941 9.677-5.408 1.363-9.936-1.95-12.485-5.821-3.503-5.256-4.446-12.601-2.655-18.95 1.208-4.577 3.84-8.068 8.678-9.287 3.018-.76 6.248-.431 8.412.95 2.108 1.395 3.148 3.841 5.425 5.193 2.748 1.775 6.263 1.311 9.08-.242 4.426-2.378 5.08-6.033 4.31-9.089-.713-2.83-2.678-5.343-4.7-7.362-6.066-6.054-16.087-8.585-26.675-5.917-16.907 4.259-21.13 16.576-22.918 27.498-.81 4.958-.452 9.983.732 14.68 3.122 12.393 15.156 30.364 37.3 24.785 9.791-2.466 16.28-7.712 20.276-14.917zm67.503-6.956c7.287-1.835 7.456-6.692 6.529-10.37-.727-2.886-2.194-5.586-3.263-8.386-1.795-4.723-3.192-9.546-4.432-14.47-.798-3.169-1.497-6.423-2.309-9.648-1.683-6.678-4.646-15.078-12.875-18.903-4.199-2.011-8.981-2.25-14.105-.96-5.578 1.405-11.299 4.652-15.553 8.19-.599-2.617-1.254-5.22-1.91-7.823-1.055-4.187-2.167-8.842-4.788-12.515-1.666-2.288-4.513-4.7-9.01-3.567-5.693 1.434-8.438 5.676-6.956 11.561 1.027 4.075 3.078 7.89 4.118 12.022.742 2.942 1.27 5.999 2.01 8.941 1.042 4.613 2.197 9.196 3.351 13.78 1.625 6.451 3.094 13.002 4.548 19.496 1.084 4.782 2.353 9.578 2.682 14.49.344 5.449 5.27 8.902 11.076 7.44 5.977-1.506 7.214-6.451 7.155-9.566-.03-4.686-2.125-12.283-3.58-18.055-1.112-4.895-2.935-9.972-2.923-15.211-.017-5.351 3.142-8.675 9.688-11.527 4.61-1.884 6.831-1.481 8.612 3.427 1.51 4.073 2.181 8.417 3.393 13.227 2.038 8.092 4.717 16.083 8.165 23.76 1.296 2.743 4.856 6.059 10.377 4.667zm9.298-97.425c-7.116 1.792-9.433 8.214-8.378 12.401 1.098 4.357 5.81 8.646 13.211 6.782 7.115-1.792 9.362-8.015 8.307-12.203-1.055-4.187-5.91-8.801-13.14-6.98zm9.684 83.617c-.556-2.207-.942-4.457-1.498-6.664-1.04-4.372-3.991-16.085-6.001-24.064-1.697-6.734-3.165-13.526-4.335-20.332-.557-2.93.096-8.028 6.244-9.577 11.841-2.983 11.959 8.782 12.758 12.914a168.04 168.04 0 002.524 11.942c2.252 8.941 4.319 16.905 6.386 24.87 2.01 7.979 4.191 14.471-5.145 16.822-6.091 1.535-10.121-2.686-10.933-5.911zm23.561-91.992c-7.116 1.792-9.433 8.214-8.378 12.401 1.097 4.357 5.81 8.647 13.21 6.782 7.116-1.792 9.362-8.015 8.307-12.203-1.054-4.187-5.91-8.801-13.139-6.98zm9.683 83.617c-.556-2.207-.941-4.457-1.497-6.664-1.041-4.372-3.992-16.085-6.002-24.064-1.696-6.734-3.165-13.526-4.335-20.332-.556-2.93.097-8.028 6.245-9.577 11.84-2.983 11.959 8.782 12.758 12.914a168.02 168.02 0 002.524 11.942c2.252 8.941 4.319 16.905 6.386 24.87 2.01 7.979 4.19 14.471-5.146 16.822-6.091 1.535-10.12-2.686-10.933-5.911zm23.561-91.992c-7.115 1.792-9.433 8.214-8.378 12.401 1.098 4.357 5.811 8.646 13.211 6.782 7.116-1.792 9.362-8.015 8.307-12.203-1.055-4.187-5.91-8.801-13.14-6.98zm9.684 83.617c-.556-2.207-.941-4.457-1.497-6.664-1.041-4.372-3.992-16.085-6.002-24.064-1.696-6.734-3.165-13.526-4.335-20.332-.556-2.929.096-8.028 6.244-9.577 11.841-2.983 11.96 8.782 12.758 12.914.699 3.977 1.526 7.98 2.524 11.942 2.253 8.94 4.32 16.905 6.387 24.87 2.01 7.979 4.19 14.471-5.146 16.822-6.091 1.535-10.121-2.686-10.933-5.911zm23.561-91.992c-7.116 1.793-9.433 8.214-8.378 12.401 1.098 4.357 5.81 8.647 13.211 6.782 7.115-1.792 9.362-8.015 8.307-12.203-1.055-4.187-5.91-8.801-13.14-6.98zm9.684 83.617c-.556-2.207-.942-4.457-1.498-6.664-1.04-4.371-3.991-16.085-6.001-24.064-1.697-6.734-3.165-13.526-4.335-20.332-.557-2.929.096-8.028 6.244-9.577 11.841-2.983 11.959 8.783 12.758 12.914.699 3.977 1.526 7.98 2.524 11.942 2.252 8.94 4.319 16.905 6.386 24.87 2.01 7.979 4.191 14.471-5.145 16.823-6.091 1.534-10.121-2.686-10.933-5.912zm23.561-91.992c-7.116 1.793-9.433 8.214-8.379 12.401 1.098 4.357 5.811 8.647 13.211 6.782 7.116-1.792 9.362-8.015 8.307-12.203-1.054-4.187-5.91-8.801-13.139-6.98zm9.683 83.617c-.556-2.207-.941-4.457-1.497-6.664-1.041-4.371-3.992-16.085-6.002-24.064-1.696-6.734-3.165-13.526-4.335-20.332-.556-2.929.097-8.028 6.245-9.577 11.84-2.983 11.959 8.783 12.758 12.914.699 3.977 1.526 7.98 2.524 11.942 2.252 8.94 4.319 16.905 6.386 24.87 2.01 7.979 4.19 14.471-5.146 16.823-6.091 1.534-10.12-2.686-10.933-5.912zm20.755-61.556c3.992 15.844 7.514 31.747 11.506 47.592l1.382 5.489c1.184 4.697 6.166 7.172 11.175 5.91 4.611-1.161 5.948-4.507 6.16-7.268.227-2.224-.243-4.573-.999-7.572-2.823-11.204-5.531-22.438-8.226-33.614-2.21-9.012-4.234-18.01-6.501-27.008-.684-2.716-1.311-5.447-2.11-8.134-.912-2.9-3.603-6.615-9.268-6.03-4.967.71-9.704 4.972-8.279 10.63 1.682 6.678 3.478 13.327 5.16 20.004zm32.562-8.203c3.992 15.844 7.513 31.747 11.505 47.592l1.383 5.489c1.183 4.697 6.166 7.173 11.175 5.91 4.611-1.161 5.948-4.507 6.16-7.268.227-2.224-.244-4.573-.999-7.572-2.823-11.204-5.532-22.437-8.226-33.614-2.21-9.012-4.235-18.01-6.501-27.008-.685-2.716-1.312-5.446-2.11-8.134-.912-2.9-3.604-6.615-9.268-6.03-4.967.71-9.705 4.972-8.279 10.631 1.682 6.678 3.478 13.326 5.16 20.004z"/></mask><path d="M48.989 157.57c1.948-3.56 4.408-8.934 3.382-13.008-1.027-4.075-5.739-6.438-9.894-5.391-3.53.889-5.62 3.883-7.327 7.201-2.688 5.191-4.452 8.043-10.941 9.677-5.408 1.363-9.936-1.95-12.485-5.821-3.503-5.256-4.446-12.601-2.655-18.95 1.208-4.577 3.84-8.068 8.678-9.287 3.018-.76 6.248-.431 8.412.95 2.108 1.395 3.148 3.841 5.425 5.193 2.748 1.775 6.263 1.311 9.08-.242 4.426-2.378 5.08-6.033 4.31-9.089-.713-2.83-2.678-5.343-4.7-7.362-6.066-6.054-16.087-8.585-26.675-5.917-16.907 4.259-21.13 16.576-22.918 27.498-.81 4.958-.452 9.983.732 14.68 3.122 12.393 15.156 30.364 37.3 24.785 9.791-2.466 16.28-7.712 20.276-14.917zm67.503-6.956c7.287-1.835 7.456-6.692 6.529-10.37-.727-2.886-2.194-5.586-3.263-8.386-1.795-4.723-3.192-9.546-4.432-14.47-.798-3.169-1.497-6.423-2.309-9.648-1.683-6.678-4.646-15.078-12.875-18.903-4.199-2.011-8.981-2.25-14.105-.96-5.578 1.405-11.299 4.652-15.553 8.19-.599-2.617-1.254-5.22-1.91-7.823-1.055-4.187-2.167-8.842-4.788-12.515-1.666-2.288-4.513-4.7-9.01-3.567-5.693 1.434-8.438 5.676-6.956 11.561 1.027 4.075 3.078 7.89 4.118 12.022.742 2.942 1.27 5.999 2.01 8.941 1.042 4.613 2.197 9.196 3.351 13.78 1.625 6.451 3.094 13.002 4.548 19.496 1.084 4.782 2.353 9.578 2.682 14.49.344 5.449 5.27 8.902 11.076 7.44 5.977-1.506 7.214-6.451 7.155-9.566-.03-4.686-2.125-12.283-3.58-18.055-1.112-4.895-2.935-9.972-2.923-15.211-.017-5.351 3.142-8.675 9.688-11.527 4.61-1.884 6.831-1.481 8.612 3.427 1.51 4.073 2.181 8.417 3.393 13.227 2.038 8.092 4.717 16.083 8.165 23.76 1.296 2.743 4.856 6.059 10.377 4.667zm9.298-97.425c-7.116 1.792-9.433 8.214-8.378 12.401 1.098 4.357 5.81 8.646 13.211 6.782 7.115-1.792 9.362-8.015 8.307-12.203-1.055-4.187-5.91-8.801-13.14-6.98zm9.684 83.617c-.556-2.207-.942-4.457-1.498-6.664-1.04-4.372-3.991-16.085-6.001-24.064-1.697-6.734-3.165-13.526-4.335-20.332-.557-2.93.096-8.028 6.244-9.577 11.841-2.983 11.959 8.782 12.758 12.914a168.04 168.04 0 002.524 11.942c2.252 8.941 4.319 16.905 6.386 24.87 2.01 7.979 4.191 14.471-5.145 16.822-6.091 1.535-10.121-2.686-10.933-5.911zm23.561-91.992c-7.116 1.792-9.433 8.214-8.378 12.401 1.097 4.357 5.81 8.647 13.21 6.782 7.116-1.792 9.362-8.015 8.307-12.203-1.054-4.187-5.91-8.801-13.139-6.98zm9.683 83.617c-.556-2.207-.941-4.457-1.497-6.664-1.041-4.372-3.992-16.085-6.002-24.064-1.696-6.734-3.165-13.526-4.335-20.332-.556-2.93.097-8.028 6.245-9.577 11.84-2.983 11.959 8.782 12.758 12.914a168.02 168.02 0 002.524 11.942c2.252 8.941 4.319 16.905 6.386 24.87 2.01 7.979 4.19 14.471-5.146 16.822-6.091 1.535-10.12-2.686-10.933-5.911zm23.561-91.992c-7.115 1.792-9.433 8.214-8.378 12.401 1.098 4.357 5.811 8.646 13.211 6.782 7.116-1.792 9.362-8.015 8.307-12.203-1.055-4.187-5.91-8.801-13.14-6.98zm9.684 83.617c-.556-2.207-.941-4.457-1.497-6.664-1.041-4.372-3.992-16.085-6.002-24.064-1.696-6.734-3.165-13.526-4.335-20.332-.556-2.929.096-8.028 6.244-9.577 11.841-2.983 11.96 8.782 12.758 12.914.699 3.977 1.526 7.98 2.524 11.942 2.253 8.94 4.32 16.905 6.387 24.87 2.01 7.979 4.19 14.471-5.146 16.822-6.091 1.535-10.121-2.686-10.933-5.911zm23.561-91.992c-7.116 1.793-9.433 8.214-8.378 12.401 1.098 4.357 5.81 8.647 13.211 6.782 7.115-1.792 9.362-8.015 8.307-12.203-1.055-4.187-5.91-8.801-13.14-6.98zm9.684 83.617c-.556-2.207-.942-4.457-1.498-6.664-1.04-4.371-3.991-16.085-6.001-24.064-1.697-6.734-3.165-13.526-4.335-20.332-.557-2.929.096-8.028 6.244-9.577 11.841-2.983 11.959 8.783 12.758 12.914.699 3.977 1.526 7.98 2.524 11.942 2.252 8.94 4.319 16.905 6.386 24.87 2.01 7.979 4.191 14.471-5.145 16.823-6.091 1.534-10.121-2.686-10.933-5.912zm23.561-91.992c-7.116 1.793-9.433 8.214-8.379 12.401 1.098 4.357 5.811 8.647 13.211 6.782 7.116-1.792 9.362-8.015 8.307-12.203-1.054-4.187-5.91-8.801-13.139-6.98zm9.683 83.617c-.556-2.207-.941-4.457-1.497-6.664-1.041-4.371-3.992-16.085-6.002-24.064-1.696-6.734-3.165-13.526-4.335-20.332-.556-2.929.097-8.028 6.245-9.577 11.84-2.983 11.959 8.783 12.758 12.914.699 3.977 1.526 7.98 2.524 11.942 2.252 8.94 4.319 16.905 6.386 24.87 2.01 7.979 4.19 14.471-5.146 16.823-6.091 1.534-10.12-2.686-10.933-5.912zm20.755-61.556c3.992 15.844 7.514 31.747 11.506 47.592l1.382 5.489c1.184 4.697 6.166 7.172 11.175 5.91 4.611-1.161 5.948-4.507 6.16-7.268.227-2.224-.243-4.573-.999-7.572-2.823-11.204-5.531-22.438-8.226-33.614-2.21-9.012-4.234-18.01-6.501-27.008-.684-2.716-1.311-5.447-2.11-8.134-.912-2.9-3.603-6.615-9.268-6.03-4.967.71-9.704 4.972-8.279 10.63 1.682 6.678 3.478 13.327 5.16 20.004zm32.562-8.203c3.992 15.844 7.513 31.747 11.505 47.592l1.383 5.489c1.183 4.697 6.166 7.173 11.175 5.91 4.611-1.161 5.948-4.507 6.16-7.268.227-2.224-.244-4.573-.999-7.572-2.823-11.204-5.532-22.437-8.226-33.614-2.21-9.012-4.235-18.01-6.501-27.008-.685-2.716-1.312-5.446-2.11-8.134-.912-2.9-3.604-6.615-9.268-6.03-4.967.71-9.705 4.972-8.279 10.631 1.682 6.678 3.478 13.326 5.16 20.004z" fill="#76B3FF"/><path d="M48.989 157.57c1.948-3.56 4.408-8.934 3.382-13.008-1.027-4.075-5.739-6.438-9.894-5.391-3.53.889-5.62 3.883-7.327 7.201-2.688 5.191-4.452 8.043-10.941 9.677-5.408 1.363-9.936-1.95-12.485-5.821-3.503-5.256-4.446-12.601-2.655-18.95 1.208-4.577 3.84-8.068 8.678-9.287 3.018-.76 6.248-.431 8.412.95 2.108 1.395 3.148 3.841 5.425 5.193 2.748 1.775 6.263 1.311 9.08-.242 4.426-2.378 5.08-6.033 4.31-9.089-.713-2.83-2.678-5.343-4.7-7.362-6.066-6.054-16.087-8.585-26.675-5.917-16.907 4.259-21.13 16.576-22.918 27.498-.81 4.958-.452 9.983.732 14.68 3.122 12.393 15.156 30.364 37.3 24.785 9.791-2.466 16.28-7.712 20.276-14.917zm67.503-6.956c7.287-1.835 7.456-6.692 6.529-10.37-.727-2.886-2.194-5.586-3.263-8.386-1.795-4.723-3.192-9.546-4.432-14.47-.798-3.169-1.497-6.423-2.309-9.648-1.683-6.678-4.646-15.078-12.875-18.903-4.199-2.011-8.981-2.25-14.105-.96-5.578 1.405-11.299 4.652-15.553 8.19-.599-2.617-1.254-5.22-1.91-7.823-1.055-4.187-2.167-8.842-4.788-12.515-1.666-2.288-4.513-4.7-9.01-3.567-5.693 1.434-8.438 5.676-6.956 11.561 1.027 4.075 3.078 7.89 4.118 12.022.742 2.942 1.27 5.999 2.01 8.941 1.042 4.613 2.197 9.196 3.351 13.78 1.625 6.451 3.094 13.002 4.548 19.496 1.084 4.782 2.353 9.578 2.682 14.49.344 5.449 5.27 8.902 11.076 7.44 5.977-1.506 7.214-6.451 7.155-9.566-.03-4.686-2.125-12.283-3.58-18.055-1.112-4.895-2.935-9.972-2.923-15.211-.017-5.351 3.142-8.675 9.688-11.527 4.61-1.884 6.831-1.481 8.612 3.427 1.51 4.073 2.181 8.417 3.393 13.227 2.038 8.092 4.717 16.083 8.165 23.76 1.296 2.743 4.856 6.059 10.377 4.667zm9.298-97.425c-7.116 1.792-9.433 8.214-8.378 12.401 1.098 4.357 5.81 8.646 13.211 6.782 7.115-1.792 9.362-8.015 8.307-12.203-1.055-4.187-5.91-8.801-13.14-6.98zm9.684 83.617c-.556-2.207-.942-4.457-1.498-6.664-1.04-4.372-3.991-16.085-6.001-24.064-1.697-6.734-3.165-13.526-4.335-20.332-.557-2.93.096-8.028 6.244-9.577 11.841-2.983 11.959 8.782 12.758 12.914a168.04 168.04 0 002.524 11.942c2.252 8.941 4.319 16.905 6.386 24.87 2.01 7.979 4.191 14.471-5.145 16.822-6.091 1.535-10.121-2.686-10.933-5.911zm23.561-91.992c-7.116 1.792-9.433 8.214-8.378 12.401 1.097 4.357 5.81 8.647 13.21 6.782 7.116-1.792 9.362-8.015 8.307-12.203-1.054-4.187-5.91-8.801-13.139-6.98zm9.683 83.617c-.556-2.207-.941-4.457-1.497-6.664-1.041-4.372-3.992-16.085-6.002-24.064-1.696-6.734-3.165-13.526-4.335-20.332-.556-2.93.097-8.028 6.245-9.577 11.84-2.983 11.959 8.782 12.758 12.914a168.02 168.02 0 002.524 11.942c2.252 8.941 4.319 16.905 6.386 24.87 2.01 7.979 4.19 14.471-5.146 16.822-6.091 1.535-10.12-2.686-10.933-5.911zm23.561-91.992c-7.115 1.792-9.433 8.214-8.378 12.401 1.098 4.357 5.811 8.646 13.211 6.782 7.116-1.792 9.362-8.015 8.307-12.203-1.055-4.187-5.91-8.801-13.14-6.98zm9.684 83.617c-.556-2.207-.941-4.457-1.497-6.664-1.041-4.372-3.992-16.085-6.002-24.064-1.696-6.734-3.165-13.526-4.335-20.332-.556-2.929.096-8.028 6.244-9.577 11.841-2.983 11.96 8.782 12.758 12.914.699 3.977 1.526 7.98 2.524 11.942 2.253 8.94 4.32 16.905 6.387 24.87 2.01 7.979 4.19 14.471-5.146 16.822-6.091 1.535-10.121-2.686-10.933-5.911zm23.561-91.992c-7.116 1.793-9.433 8.214-8.378 12.401 1.098 4.357 5.81 8.647 13.211 6.782 7.115-1.792 9.362-8.015 8.307-12.203-1.055-4.187-5.91-8.801-13.14-6.98zm9.684 83.617c-.556-2.207-.942-4.457-1.498-6.664-1.04-4.371-3.991-16.085-6.001-24.064-1.697-6.734-3.165-13.526-4.335-20.332-.557-2.929.096-8.028 6.244-9.577 11.841-2.983 11.959 8.783 12.758 12.914.699 3.977 1.526 7.98 2.524 11.942 2.252 8.94 4.319 16.905 6.386 24.87 2.01 7.979 4.191 14.471-5.145 16.823-6.091 1.534-10.121-2.686-10.933-5.912zm23.561-91.992c-7.116 1.793-9.433 8.214-8.379 12.401 1.098 4.357 5.811 8.647 13.211 6.782 7.116-1.792 9.362-8.015 8.307-12.203-1.054-4.187-5.91-8.801-13.139-6.98zm9.683 83.617c-.556-2.207-.941-4.457-1.497-6.664-1.041-4.371-3.992-16.085-6.002-24.064-1.696-6.734-3.165-13.526-4.335-20.332-.556-2.929.097-8.028 6.245-9.577 11.84-2.983 11.959 8.783 12.758 12.914.699 3.977 1.526 7.98 2.524 11.942 2.252 8.94 4.319 16.905 6.386 24.87 2.01 7.979 4.19 14.471-5.146 16.823-6.091 1.534-10.12-2.686-10.933-5.912zm20.755-61.556c3.992 15.844 7.514 31.747 11.506 47.592l1.382 5.489c1.184 4.697 6.166 7.172 11.175 5.91 4.611-1.161 5.948-4.507 6.16-7.268.227-2.224-.243-4.573-.999-7.572-2.823-11.204-5.531-22.438-8.226-33.614-2.21-9.012-4.234-18.01-6.501-27.008-.684-2.716-1.311-5.447-2.11-8.134-.912-2.9-3.603-6.615-9.268-6.03-4.967.71-9.704 4.972-8.279 10.63 1.682 6.678 3.478 13.327 5.16 20.004zm32.562-8.203c3.992 15.844 7.513 31.747 11.505 47.592l1.383 5.489c1.183 4.697 6.166 7.173 11.175 5.91 4.611-1.161 5.948-4.507 6.16-7.268.227-2.224-.244-4.573-.999-7.572-2.823-11.204-5.532-22.437-8.226-33.614-2.21-9.012-4.235-18.01-6.501-27.008-.685-2.716-1.312-5.446-2.11-8.134-.912-2.9-3.604-6.615-9.268-6.03-4.967.71-9.705 4.972-8.279 10.631 1.682 6.678 3.478 13.326 5.16 20.004z" stroke="#000" stroke-width="4.868" mask="url(#path-1-outside-1_1188_99)"/><path d="M17.15 119.467c-6.435 1.84-17.396 9.967-9.762 27.754m22.422 9.462c1.854-.467 6.482-4.261 10.255-11.452m246.47-120.892c1.967 5.198 7.397 23.102 13.385 53.13M74.126 96.573c6.018-4.363 20.253-10.884 29.045-2.061m16.782-33.793c-.098 3.091 1.067 9.192 6.506 8.873m2.723 10.812c-1.675-1.001-3.408 3.42 3.066 29.121m21.144-56.9c-.098 3.09 1.067 9.191 6.505 8.872m2.724 10.811c-1.676-1-3.409 3.422 3.066 29.122m21.605-57.675c-.097 3.09 1.068 9.192 6.506 8.873m2.724 10.812c-1.676-1.002-3.409 3.42 3.065 29.121m20.448-57.054c-.097 3.09 1.068 9.192 6.506 8.873m2.724 10.811c-1.676-1.001-3.409 3.421 3.065 29.121m21.375-57.287c-.097 3.09 1.067 9.192 6.506 8.873m2.724 10.811c-1.676-1.001-3.409 3.421 3.065 29.121m54.436-60.36c1.967 5.198 7.397 23.102 13.385 53.13" stroke="#fff" stroke-width="2.434" stroke-linecap="round"/></svg>