<svg width="243" height="198" fill="none" xmlns="http://www.w3.org/2000/svg"><path d="M38.124 55.05V48.6c.1-2.6.3-5.25.6-7.95s.8-5.35 1.5-7.95c.7-2.7 1.65-5.1 2.85-7.2 1.3-2.1 2.9-3.8 4.8-5.1 2-1.3 4.45-1.95 7.35-1.95 2.9 0 5.35.65 7.35 1.95 2 1.3 3.65 3 4.95 5.1 1.3 2.1 2.25 4.5 2.85 7.2.7 2.6 1.2 5.25 1.5 7.95.4 2.7.6 5.35.6 7.95.1 2.5.15 4.65.15 6.45 0 3-.1 6.65-.3 10.95-.2 4.2-.85 8.3-1.95 12.3-1 3.9-2.7 7.25-5.1 10.05-2.3 2.8-5.65 4.2-10.05 4.2-4.3 0-7.6-1.4-9.9-4.2-2.3-2.8-4-6.15-5.1-10.05-1-4-1.6-8.1-1.8-12.3-.2-4.3-.3-7.95-.3-10.95zm-21.3 0c0 10.5 1 19.3 3 26.4 2.1 7 4.9 12.6 8.4 16.8 3.5 4.2 7.55 7.2 12.15 9 4.7 1.8 9.65 2.7 14.85 2.7 5.3 0 10.25-.9 14.85-2.7 4.7-1.8 8.8-4.8 12.3-9 3.6-4.2 6.4-9.8 8.4-16.8 2.1-7.1 3.15-15.9 3.15-26.4 0-10.2-1.05-18.75-3.15-25.65-2-7-4.8-12.6-8.4-16.8-3.5-4.2-7.6-7.2-12.3-9-4.6-1.8-9.55-2.7-14.85-2.7-5.2 0-10.15.9-14.85 2.7-4.6 1.8-8.65 4.8-12.15 9s-6.3 9.8-8.4 16.8c-2 6.9-3 15.45-3 25.65zM174.573 21.3V3h-71.7v19.8h49.8c-10 12.1-18.1 25.4-24.3 39.9-6.1 14.5-9.75 29.6-10.95 45.3h22.8c.1-7 .9-14.55 2.4-22.65 1.6-8.1 3.8-16.1 6.6-24 2.9-7.9 6.45-15.35 10.65-22.35 4.3-7 9.2-12.9 14.7-17.7zm14.8 63.6V108h23.55V84.9h-23.55z" fill="#000"/><path d="M33.19 35.96h0l.002-.009c.68-2.62 1.596-4.93 2.741-6.94 1.228-1.979 2.728-3.567 4.496-4.779 1.804-1.17 4.051-1.782 6.795-1.782 2.748 0 5 .615 6.805 1.789 1.872 1.217 3.42 2.808 4.645 4.788 1.234 1.994 2.145 4.287 2.724 6.89l.005.022.005.021a52.088 52.088 0 011.472 7.8l.002.019.003.018a53.23 53.23 0 01.589 7.803v.04c.1 2.492.15 4.628.15 6.41 0 2.98-.1 6.613-.3 10.904a55.344 55.344 0 01-1.914 12.081l-.003.009-.002.008c-.965 3.765-2.599 6.974-4.89 9.648l-.007.008-.007.008c-2.07 2.519-5.106 3.834-9.277 3.834-4.063 0-7.053-1.31-9.127-3.834-2.2-2.678-3.84-5.896-4.907-9.673a61.93 61.93 0 01-1.767-12.09c-.2-4.29-.3-7.923-.3-10.903v-6.43c.1-2.57.298-5.189.595-7.86.294-2.65.785-5.25 1.472-7.8zM10.86 84.722l.003.008.002.008c2.126 7.088 4.98 12.82 8.59 17.153 3.596 4.315 7.78 7.423 12.553 9.291l.007.002c4.818 1.845 9.89 2.766 15.208 2.766 5.414 0 10.488-.919 15.212-2.767 4.869-1.866 9.104-4.971 12.702-9.287 3.715-4.337 6.57-10.075 8.596-17.167 2.135-7.22 3.19-16.121 3.19-26.679 0-10.257-1.055-18.91-3.19-25.932-2.028-7.09-4.882-12.827-8.596-17.163-3.598-4.316-7.833-7.421-12.703-9.287C57.71 3.82 52.638 2.9 47.224 2.9c-5.318 0-10.39.921-15.208 2.767h0l-.006.002c-4.774 1.868-8.958 4.976-12.554 9.291-3.61 4.332-6.464 10.065-8.59 17.153h0l-.003.009c-2.034 7.02-3.04 15.67-3.04 25.928 0 10.557 1.005 19.455 3.038 26.672zm156.37-59.668l.342-.3V5h-73.7v21.8h48.694c-9.449 11.734-17.154 24.57-23.113 38.507l-.002.006c-6.142 14.599-9.817 29.804-11.026 45.611l-.082 1.076h24.866l.014-.985c.099-6.934.892-14.425 2.383-22.477a169.946 169.946 0 016.558-23.848c2.878-7.84 6.4-15.229 10.564-22.17 4.253-6.923 9.089-12.741 14.503-17.466zM181.373 86.9h-1V112h25.55V86.9h-24.55z" stroke="#000" stroke-width="2"/><path fill="#fff" d="M0 108.324l211.035-71.629 31.114 89.54-211.035 71.628z"/><path stroke="#000" stroke-width="2" d="M6.694 106.433L204.259 38.63"/></svg>