<svg width="243" height="198" fill="none" xmlns="http://www.w3.org/2000/svg"><path d="M38.124 55.05V48.6c.1-2.6.3-5.25.6-7.95s.8-5.35 1.5-7.95c.7-2.7 1.65-5.1 2.85-7.2 1.3-2.1 2.9-3.8 4.8-5.1 2-1.3 4.45-1.95 7.35-1.95 2.9 0 5.35.65 7.35 1.95 2 1.3 3.65 3 4.95 5.1 1.3 2.1 2.25 4.5 2.85 7.2.7 2.6 1.2 5.25 1.5 7.95.4 2.7.6 5.35.6 7.95.1 2.5.15 4.65.15 6.45 0 3-.1 6.65-.3 10.95-.2 4.2-.85 8.3-1.95 12.3-1 3.9-2.7 7.25-5.1 10.05-2.3 2.8-5.65 4.2-10.05 4.2-4.3 0-7.6-1.4-9.9-4.2-2.3-2.8-4-6.15-5.1-10.05-1-4-1.6-8.1-1.8-12.3-.2-4.3-.3-7.95-.3-10.95zm-21.3 0c0 10.5 1 19.3 3 26.4 2.1 7 4.9 12.6 8.4 16.8 3.5 4.2 7.55 7.2 12.15 9 4.7 1.8 9.65 2.7 14.85 2.7 5.3 0 10.25-.9 14.85-2.7 4.7-1.8 8.8-4.8 12.3-9 3.6-4.2 6.4-9.8 8.4-16.8 2.1-7.1 3.15-15.9 3.15-26.4 0-10.2-1.05-18.75-3.15-25.65-2-7-4.8-12.6-8.4-16.8-3.5-4.2-7.6-7.2-12.3-9-4.6-1.8-9.55-2.7-14.85-2.7-5.2 0-10.15.9-14.85 2.7-4.6 1.8-8.65 4.8-12.15 9s-6.3 9.8-8.4 16.8c-2 6.9-3 15.45-3 25.65zm114.399-9.6v15c2.6 0 5.3.1 8.1.3 2.9.1 5.55.65 7.95 1.65 2.4.9 4.35 2.4 5.85 4.5 1.6 2.1 2.4 5.15 2.4 9.15 0 5.1-1.65 9.15-4.95 12.15-3.3 2.9-7.35 4.35-12.15 4.35-3.1 0-5.8-.55-8.1-1.65-2.2-1.1-4.05-2.55-5.55-4.35-1.5-1.9-2.65-4.1-3.45-6.6-.8-2.6-1.25-5.3-1.35-8.1h-20.25c-.1 6.1.75 11.5 2.55 16.2 1.9 4.7 4.55 8.7 7.95 12 3.4 3.2 7.5 5.65 12.3 7.35 4.9 1.7 10.3 2.55 16.2 2.55 5.1 0 10-.75 14.7-2.25 4.7-1.5 8.85-3.7 12.45-6.6 3.6-2.9 6.45-6.5 8.55-10.8 2.2-4.3 3.3-9.2 3.3-14.7 0-6-1.65-11.15-4.95-15.45-3.3-4.3-7.85-7.1-13.65-8.4v-.3c4.9-1.4 8.55-4.05 10.95-7.95 2.5-3.9 3.75-8.4 3.75-13.5 0-4.7-1.05-8.85-3.15-12.45-2.1-3.6-4.85-6.65-8.25-9.15-3.3-2.5-7.05-4.35-11.25-5.55-4.2-1.3-8.4-1.95-12.6-1.95-5.4 0-10.3.9-14.7 2.7-4.4 1.7-8.2 4.15-11.4 7.35-3.1 3.2-5.55 7.05-7.35 11.55-1.7 4.4-2.65 9.3-2.85 14.7h20.25c-.1-5.4 1.2-9.85 3.9-13.35 2.8-3.6 6.9-5.4 12.3-5.4 3.9 0 7.35 1.2 10.35 3.6 3 2.4 4.5 5.85 4.5 10.35 0 3-.75 5.4-2.25 7.2-1.4 1.8-3.25 3.2-5.55 4.2-2.2.9-4.6 1.45-7.2 1.65-2.6.2-5.05.2-7.35 0zm58.15 39.45V108h23.55V84.9h-23.55z" fill="#000"/><path d="M33.19 35.96h0l.002-.009c.68-2.62 1.596-4.93 2.741-6.94 1.228-1.979 2.728-3.567 4.496-4.779 1.804-1.17 4.051-1.782 6.795-1.782 2.748 0 5 .615 6.805 1.789 1.872 1.217 3.42 2.808 4.645 4.788 1.234 1.994 2.145 4.287 2.724 6.89l.005.022.005.021a52.088 52.088 0 011.472 7.8l.002.019.003.018a53.23 53.23 0 01.589 7.803v.04c.1 2.492.15 4.628.15 6.41 0 2.98-.1 6.613-.3 10.904a55.344 55.344 0 01-1.914 12.081l-.003.009-.002.008c-.965 3.765-2.599 6.974-4.89 9.648l-.007.008-.007.008c-2.07 2.519-5.106 3.834-9.277 3.834-4.063 0-7.053-1.31-9.127-3.834-2.2-2.678-3.84-5.896-4.907-9.673a61.93 61.93 0 01-1.767-12.09c-.2-4.29-.3-7.923-.3-10.903v-6.43c.1-2.57.298-5.189.595-7.86.294-2.65.785-5.25 1.472-7.8zM10.86 84.722l.003.008.002.008c2.126 7.088 4.98 12.82 8.59 17.153 3.596 4.315 7.78 7.423 12.553 9.291l.007.002c4.818 1.845 9.89 2.766 15.208 2.766 5.414 0 10.488-.919 15.212-2.767 4.869-1.866 9.104-4.971 12.702-9.287 3.715-4.337 6.57-10.075 8.596-17.167 2.135-7.22 3.19-16.121 3.19-26.679 0-10.257-1.055-18.91-3.19-25.932-2.028-7.09-4.882-12.827-8.596-17.163-3.598-4.316-7.833-7.421-12.703-9.287C57.71 3.82 52.638 2.9 47.224 2.9c-5.318 0-10.39.921-15.208 2.767h0l-.006.002c-4.774 1.868-8.958 4.976-12.554 9.291-3.61 4.332-6.464 10.065-8.59 17.153h0l-.003.009c-2.034 7.02-3.04 15.67-3.04 25.928 0 10.557 1.005 19.455 3.038 26.672zm112.45-37.268l-1.087-.094v17.09h1c2.575 0 5.251.1 8.029.298l.019.001h.018c2.794.097 5.323.626 7.6 1.575l.016.006.017.007c2.213.83 4.002 2.205 5.388 4.145l.009.012.009.012c1.415 1.857 2.195 4.656 2.195 8.544 0 4.86-1.559 8.623-4.616 11.405-3.099 2.72-6.905 4.095-11.484 4.095-2.978 0-5.523-.527-7.661-1.548-2.075-1.039-3.808-2.4-5.212-4.082-1.415-1.794-2.507-3.88-3.272-6.27a30.188 30.188 0 01-1.305-7.835l-.035-.965H90.74l-.016.984c-.102 6.201.761 11.732 2.616 16.574l.003.009.003.008c1.949 4.82 4.674 8.939 8.181 12.343l.006.005.005.006c3.51 3.303 7.733 5.822 12.652 7.564l.006.002c5.019 1.741 10.531 2.605 16.527 2.605 5.2 0 10.203-.765 15.005-2.297 4.809-1.535 9.07-3.791 12.773-6.774 3.716-2.993 6.656-6.708 8.817-11.132 2.279-4.457 3.405-9.514 3.405-15.147 0-6.195-1.708-11.565-5.156-16.058-2.927-3.815-6.791-6.49-11.553-8.038 3.83-1.59 6.815-4.076 8.906-7.472 2.611-4.075 3.903-8.764 3.903-14.032 0-4.854-1.086-9.182-3.286-12.953-2.168-3.718-5.009-6.869-8.516-9.448-3.399-2.575-7.257-4.476-11.562-5.707-4.288-1.326-8.584-1.992-12.886-1.992-5.508 0-10.536.918-15.069 2.771-4.521 1.748-8.437 4.272-11.738 7.572l-.005.006-.006.006c-3.198 3.301-5.716 7.264-7.56 11.874h0l-.004.011c-1.746 4.517-2.713 9.529-2.917 15.023l-.038 1.037h22.306l-.019-1.018c-.096-5.224 1.16-9.437 3.691-12.72 2.575-3.309 6.355-5.012 11.509-5.012 3.677 0 6.906 1.125 9.726 3.381 2.72 2.177 4.124 5.315 4.124 9.57 0 2.832-.705 4.984-2.018 6.56l-.011.012-.01.014c-1.285 1.652-2.992 2.952-5.149 3.892-2.092.855-4.386 1.382-6.888 1.574-2.553.197-4.948.196-7.187.001zM181.373 86.9h-1V112h25.55V86.9h-24.55z" stroke="#000" stroke-width="2"/><path fill="#fff" d="M0 108.324l211.035-71.629 31.114 89.54-211.035 71.628z"/><path stroke="#000" stroke-width="2" d="M6.694 106.433L204.259 38.63"/></svg>