<svg width="290" height="224" fill="none" xmlns="http://www.w3.org/2000/svg"><path d="M31.906 117.5l-1.134 1.647 1.134-1.647zm-14.1-18l1.842-.78-1.842.78zm5.85-65.25l-1.573-1.235-.002.002 1.575 1.233zm59.25 0l-1.581 1.224.006.009 1.575-1.233zm-.15 75.6l-1.573-1.235-.008.011 1.581 1.224zm-43.5-14.1l-1.728 1.006.01.019.012.018 1.706-1.043zm28.05 0l1.72 1.02.005-.007.004-.007-1.729-1.006zm-.15-47.25l-1.729 1.006.007.011.007.012 1.715-1.029zm-27.9 0l-1.715-1.029-.005.01 1.72 1.019zm14.1 73.3c-7.84 0-14.585-2.001-20.316-5.947l-2.268 3.294c6.469 4.454 14.024 6.653 22.584 6.653v-4zm-20.316-5.947c-5.743-3.955-10.218-9.631-13.392-17.132l-3.684 1.558c3.427 8.099 8.351 14.423 14.808 18.868l2.268-3.294zM19.648 98.721c-3.174-7.502-4.792-16.377-4.792-26.671h-4c0 10.706 1.682 20.131 5.108 28.229l3.684-1.558zM14.856 72.05c0-15.716 3.537-27.83 10.375-36.567l-3.15-2.466C14.52 42.68 10.856 55.767 10.856 72.05h4zM25.23 35.485C32.126 26.699 41.43 22.3 53.356 22.3v-4c-13.073 0-23.57 4.9-31.273 14.715l3.146 2.47zM53.356 22.3c11.926 0 21.174 4.398 27.969 13.174l3.163-2.448C76.882 23.202 66.43 18.3 53.356 18.3v4zm27.975 13.183c6.839 8.738 10.375 20.85 10.375 36.567h4c0-16.283-3.663-29.37-11.225-39.033l-3.15 2.466zM91.706 72.05c0 15.606-3.582 27.722-10.523 36.565l3.146 2.47c7.659-9.757 11.377-22.84 11.377-39.035h-4zm-10.531 36.576c-6.798 8.78-15.999 13.174-27.819 13.174v4c12.98 0 23.38-4.906 30.982-14.726l-3.163-2.448zM37.55 96.793c3.646 5.967 8.978 9.057 15.806 9.057v-4c-5.372 0-9.44-2.31-12.393-7.143l-3.413 2.086zm15.806 9.057c6.831 0 12.123-3.094 15.67-9.08l-3.44-2.04c-2.853 4.814-6.861 7.12-12.23 7.12v4zm15.679-9.094c3.454-5.937 5.071-14.195 5.071-24.556h-4c0 10.039-1.583 17.481-4.528 22.544l3.457 2.012zM74.106 72.2c0-10.464-1.667-18.783-5.235-24.729l-3.43 2.058c3.033 5.054 4.665 12.535 4.665 22.671h4zm-5.221-24.706c-3.532-6.07-8.766-9.244-15.529-9.244v4c5.237 0 9.203 2.326 12.071 7.256l3.458-2.012zM53.356 38.25c-6.845 0-12.176 3.156-15.815 9.221l3.43 2.058c2.961-4.935 7.03-7.279 12.385-7.279v-4zm-15.82 9.23c-3.465 5.848-5.08 14.117-5.08 24.57h4c0-10.147 1.586-17.578 4.52-22.53l-3.44-2.04zm-5.08 24.57c0 10.457 1.616 18.767 5.072 24.706l3.457-2.012c-2.944-5.06-4.529-12.551-4.529-22.694h-4zm112.819 29.85l-1.516-1.305-2.847 3.305h4.363v-2zm30.45 0h2v-2h-2v2zm0 20.1v2h2v-2h-2zm-69.9 0h-2v2h2v-2zm0-4.65l-1.516-1.305-.484.562v.743h2zm30.6-36.3l-1.558-1.254-.002.002 1.56 1.252zm12.45-17.7l-1.763-.946-.009.017-.009.017 1.781.912zm.15-19.95l1.414-1.414-1.414 1.414zm-16.8.15l1.414 1.414-1.414-1.414zm-3.15 10.35v2h2v-2h-2zm-21.45 0h-2v2h2v-2zm9-24.9l1.402 1.426L116.625 29zm41.1-4.8l-.936 1.768.013.007.014.007.909-1.782zm11.85 11.1l-1.728 1.008 1.728-1.008zm-24.3 68.6h30.45v-4h-30.45v4zm28.45-2V122h4v-20.1h-4zm2 18.1h-69.9v4h69.9v-4zm-67.9 2v-4.65h-4V122h4zm-.485-3.345c14.301-16.601 24.521-28.724 30.644-36.353l-3.119-2.504c-6.077 7.57-16.257 19.648-30.556 36.247l3.031 2.61zm30.642-36.35c6.212-7.715 10.473-13.749 12.673-18.043l-3.561-1.824c-2 3.906-6.039 9.672-12.227 17.358l3.115 2.508zm12.655-18.01c2.312-4.308 3.538-8.483 3.538-12.495h-4c0 3.188-.975 6.713-3.063 10.604l3.525 1.892zm3.538-12.495c0-3.928-1.195-7.273-3.736-9.814l-2.829 2.828c1.659 1.659 2.565 3.914 2.565 6.986h4zm-3.736-9.814c-2.53-2.53-5.817-3.736-9.664-3.736v4c2.953 0 5.166.894 6.835 2.564l2.829-2.828zm-9.664-3.736c-3.959 0-7.341 1.263-9.965 3.886l2.829 2.828c1.776-1.776 4.094-2.714 7.136-2.714v-4zm-9.965 3.886c-2.552 2.552-3.735 5.954-3.735 9.964h4c0-3.19.916-5.488 2.564-7.136l-2.829-2.828zm-3.735 9.964v1.8h4v-1.8h-4zm2-.2h-21.45v4h21.45v-4zm-19.45 2v-2.1h-4v2.1h4zm0-2.1c0-8.826 2.826-15.891 8.402-21.374l-2.805-2.852c-6.424 6.317-9.597 14.452-9.597 24.226h4zm8.402-21.374c5.56-5.468 12.973-8.276 22.448-8.276v-4c-10.326 0-18.813 3.092-25.253 9.424l2.805 2.852zm22.448-8.276c6.11 0 11.532 1.286 16.314 3.818l1.871-3.536c-5.418-2.868-11.495-4.282-18.185-4.282v4zm16.341 3.832c4.769 2.431 8.43 5.867 11.031 10.326l3.455-2.016c-2.999-5.141-7.238-9.105-12.669-11.874l-1.817 3.564zm11.031 10.326c2.607 4.47 3.928 9.517 3.928 15.192h4c0-6.325-1.48-12.078-4.473-17.208l-3.455 2.016zm3.928 15.192c0 5.985-1.823 12.405-5.603 19.287l3.505 1.926c4.02-7.318 6.098-14.398 6.098-21.213h-4zm-5.603 19.287c-3.794 6.905-11.226 16.823-22.413 29.808l3.031 2.61c11.213-13.015 18.881-23.198 22.887-30.492l-3.505-1.926zM192.052 122h-2v2h2v-2zm0-23.4v-2h-2v2h2zm23.25 0h2v-2h-2v2zm0 23.4v2h2v-2h-2zm-21.25 0V98.6h-4V122h4zm-2-21.4h23.25v-4h-23.25v4zm21.25-2V122h4V98.6h-4zm2 21.4h-23.25v4h23.25v-4z" fill="#000"/><path d="M90.396 115.915c-7.275 9.277-17.114 13.916-29.517 13.916-12.402 0-22.24-4.639-29.516-13.916-7.276-9.326-10.913-21.948-10.913-37.866 0-15.967 3.613-28.565 10.84-37.793 7.226-9.277 17.09-13.916 29.59-13.916s22.363 4.639 29.59 13.916c7.226 9.228 10.839 21.826 10.839 37.793 0 15.918-3.638 28.54-10.913 37.866zM46.89 101.633c3.223 5.469 7.886 8.203 13.99 8.203 6.103 0 10.766-2.71 13.989-8.13 3.222-5.42 4.834-13.257 4.834-23.51 0-10.255-1.636-18.116-4.908-23.585-3.271-5.517-7.91-8.276-13.916-8.276-6.103 0-10.766 2.734-13.989 8.203-3.223 5.42-4.834 13.257-4.834 23.51 0 10.255 1.611 18.116 4.834 23.585zm105.908 6.225h30.469V128h-69.946v-4.688c14.306-16.503 24.536-28.613 30.688-36.328 6.153-7.715 10.303-13.598 12.451-17.651 2.198-4.053 3.296-7.91 3.296-11.572 0-3.467-1.074-6.25-3.222-8.35-2.1-2.148-4.834-3.223-8.203-3.223-3.516 0-6.348 1.1-8.497 3.296-2.099 2.149-3.149 5.005-3.149 8.57v1.904h-21.46v-2.197c0-9.278 2.979-16.846 8.936-22.705 6.006-5.908 13.94-8.863 23.803-8.863 9.815 0 17.823 2.93 24.024 8.79 6.25 5.859 9.375 13.378 9.375 22.558 0 6.397-1.953 13.135-5.86 20.215-3.906 7.031-11.474 17.065-22.705 30.102zM199.6 128v-23.438h23.145V128H199.6z" fill="#000"/><path fill="#76B3FF" d="M.113 134.324l221.61-77.727 30.11 89.539-221.61 77.727z"/><path transform="matrix(.94249 -.33425 .31519 .94903 6.905 133.379)" stroke="#000" stroke-width="2" d="M0-1h202.853"/></svg>