<svg width="243" height="198" fill="none" xmlns="http://www.w3.org/2000/svg"><path d="M38.124 55.05V48.6c.1-2.6.3-5.25.6-7.95s.8-5.35 1.5-7.95c.7-2.7 1.65-5.1 2.85-7.2 1.3-2.1 2.9-3.8 4.8-5.1 2-1.3 4.45-1.95 7.35-1.95 2.9 0 5.35.65 7.35 1.95 2 1.3 3.65 3 4.95 5.1 1.3 2.1 2.25 4.5 2.85 7.2.7 2.6 1.2 5.25 1.5 7.95.4 2.7.6 5.35.6 7.95.1 2.5.15 4.65.15 6.45 0 3-.1 6.65-.3 10.95-.2 4.2-.85 8.3-1.95 12.3-1 3.9-2.7 7.25-5.1 10.05-2.3 2.8-5.65 4.2-10.05 4.2-4.3 0-7.6-1.4-9.9-4.2-2.3-2.8-4-6.15-5.1-10.05-1-4-1.6-8.1-1.8-12.3-.2-4.3-.3-7.95-.3-10.95zm-21.3 0c0 10.5 1 19.3 3 26.4 2.1 7 4.9 12.6 8.4 16.8 3.5 4.2 7.55 7.2 12.15 9 4.7 1.8 9.65 2.7 14.85 2.7 5.3 0 10.25-.9 14.85-2.7 4.7-1.8 8.8-4.8 12.3-9 3.6-4.2 6.4-9.8 8.4-16.8 2.1-7.1 3.15-15.9 3.15-26.4 0-10.2-1.05-18.75-3.15-25.65-2-7-4.8-12.6-8.4-16.8-3.5-4.2-7.6-7.2-12.3-9-4.6-1.8-9.55-2.7-14.85-2.7-5.2 0-10.15.9-14.85 2.7-4.6 1.8-8.65 4.8-12.15 9s-6.3 9.8-8.4 16.8c-2 6.9-3 15.45-3 25.65zm85.749-11.7h20.4c0-2.8.25-5.6.75-8.4.6-2.9 1.55-5.5 2.85-7.8 1.3-2.4 3-4.3 5.1-5.7 2.2-1.5 4.85-2.25 7.95-2.25 4.6 0 8.35 1.45 11.25 4.35 3 2.8 4.5 6.75 4.5 11.85 0 3.2-.75 6.05-2.25 8.55-1.4 2.5-3.2 4.75-5.4 6.75-2.1 2-4.45 3.85-7.05 5.55-2.6 1.6-5.05 3.2-7.35 4.8-4.5 3.1-8.8 6.15-12.9 9.15-4 3-7.5 6.3-10.5 9.9-3 3.5-5.4 7.5-7.2 12-1.7 4.5-2.55 9.8-2.55 15.9h77.1V89.7h-49.65c2.6-3.6 5.6-6.75 9-9.45 3.4-2.7 6.9-5.2 10.5-7.5 3.6-2.4 7.15-4.8 10.65-7.2 3.6-2.4 6.8-5.05 9.6-7.95 2.8-3 5.05-6.4 6.75-10.2 1.7-3.8 2.55-8.35 2.55-13.65 0-5.1-1-9.7-3-13.8-1.9-4.1-4.5-7.55-7.8-10.35s-7.15-4.95-11.55-6.45c-4.3-1.5-8.85-2.25-13.65-2.25-6.3 0-11.9 1.1-16.8 3.3-4.8 2.1-8.8 5.1-12 9-3.2 3.8-5.6 8.3-7.2 13.5-1.6 5.1-2.3 10.65-2.1 16.65zm86.8 41.55V108h23.55V84.9h-23.55z" fill="#000"/><path d="M93.606 47.35l-.032-.966c-.203-6.098.508-11.761 2.145-16.98 1.635-5.313 4.094-9.932 7.385-13.843 3.303-4.023 7.429-7.115 12.364-9.275 5.048-2.265 10.79-3.386 17.205-3.386 4.905 0 9.566.767 13.977 2.305 4.508 1.537 8.469 3.747 11.87 6.633 3.413 2.896 6.099 6.461 8.056 10.682 2.072 4.25 3.097 9 3.097 14.23 0 5.404-.866 10.1-2.637 14.059a37.95 37.95 0 01-6.931 10.474l-.006.006-.006.006c-2.852 2.954-6.106 5.648-9.759 8.084a981.77 981.77 0 01-10.656 7.203l-.008.006-.008.005a124.734 124.734 0 00-10.417 7.44 46.256 46.256 0 00-7.616 7.667h48.644V112h-79.1v-1c0-6.189.863-11.614 2.615-16.253l.003-.009.004-.009c1.838-4.594 4.292-8.688 7.365-12.274 3.052-3.662 6.608-7.013 10.663-10.055l.01-.007h0a556.965 556.965 0 0112.922-9.165M93.606 47.35l31.717 16.7m-31.717-16.7h22.367v-1c0-2.735.244-5.472.732-8.21m-23.099 9.21l23.099-9.21m8.05 25.088l.001-.001.567.823m-.568-.822l-.003.002.571.82m-.568-.822a156.85 156.85 0 017.383-4.822m-6.815 5.644c2.3-1.6 4.75-3.2 7.35-4.8m-.535-.844a.778.778 0 00-.012.007l.547.837m-.535-.844c2.548-1.667 4.846-3.477 6.896-5.43l.008-.008.009-.008c2.123-1.93 3.855-4.096 5.2-6.498l.007-.013.008-.013c1.398-2.33 2.107-4.999 2.107-8.036 0-4.894-1.432-8.552-4.182-11.118l-.012-.012-.013-.012c-2.689-2.69-6.173-4.058-10.543-4.058-2.932 0-5.378.707-7.386 2.077l-.009.005c-1.953 1.303-3.546 3.076-4.775 5.345l-.005.008-.004.007c-1.241 2.197-2.157 4.693-2.739 7.498m15.433 20.266l.011-.007.524.851m0 0l-15.968-21.11m-83.516-2.18h0l.003-.009c.68-2.62 1.596-4.93 2.741-6.94 1.228-1.979 2.728-3.567 4.496-4.779 1.804-1.17 4.051-1.782 6.795-1.782 2.748 0 5 .615 6.805 1.789 1.872 1.217 3.42 2.808 4.645 4.788 1.234 1.994 2.145 4.287 2.724 6.89l.005.022.005.021a52.088 52.088 0 011.472 7.8l.002.019.003.018a53.23 53.23 0 01.589 7.803v.04c.1 2.492.15 4.628.15 6.41 0 2.98-.1 6.613-.3 10.904a55.344 55.344 0 01-1.914 12.081l-.003.009-.002.008c-.965 3.765-2.599 6.974-4.89 9.648l-.007.008-.007.008c-2.07 2.519-5.106 3.834-9.277 3.834-4.063 0-7.053-1.31-9.127-3.834-2.2-2.678-3.84-5.896-4.907-9.673a61.93 61.93 0 01-1.767-12.09c-.2-4.29-.3-7.923-.3-10.903v-6.43c.1-2.57.298-5.189.595-7.86.294-2.65.785-5.25 1.472-7.8zM10.861 84.722l.003.008.002.008c2.126 7.088 4.98 12.82 8.59 17.153 3.596 4.315 7.78 7.423 12.553 9.291l.007.002c4.818 1.845 9.89 2.766 15.208 2.766 5.414 0 10.488-.919 15.212-2.767 4.869-1.866 9.104-4.971 12.702-9.287 3.715-4.337 6.57-10.075 8.596-17.167 2.135-7.22 3.19-16.121 3.19-26.679 0-10.257-1.055-18.91-3.19-25.932-2.028-7.09-4.882-12.827-8.596-17.163-3.598-4.316-7.833-7.421-12.703-9.287C57.71 3.82 52.638 2.9 47.224 2.9c-5.318 0-10.39.921-15.208 2.767h0l-.006.002c-4.774 1.868-8.958 4.976-12.554 9.291-3.61 4.332-6.464 10.065-8.59 17.153h0l-.003.009c-2.034 7.02-3.04 15.67-3.04 25.928 0 10.557 1.005 19.455 3.038 26.672zM92.181 110h-.007v1c0-.335.002-.669.007-1zm28.683-17.3h-1.241c.244-.337.491-.67.742-1l.499 1zm60.509-5.8h-1V112h25.55V86.9h-24.55z" stroke="#000" stroke-width="2"/><path fill="#fff" d="M0 108.324l211.035-71.629 31.114 89.54-211.035 71.628z"/><path stroke="#000" stroke-width="2" d="M6.694 106.433L204.259 38.63"/></svg>