<svg width="289" height="225" fill="none" xmlns="http://www.w3.org/2000/svg"><path d="M31.793 118.244l-1.134 1.647 1.134-1.647zm-14.1-18l1.842-.78-1.842.78zm5.85-65.25L21.97 33.76l-.002.002 1.575 1.233zm59.25 0l-1.581 1.224.006.009 1.575-1.233zm-.15 75.6l-1.573-1.235-.008.011 1.581 1.224zm-43.5-14.1L37.415 97.5l.01.019.012.018 1.706-1.043zm28.05 0l1.72 1.02.005-.007.004-.007-1.729-1.006zm-.15-47.25l-1.728 1.006.006.012.007.011 1.715-1.029zm-27.9 0l-1.715-1.029-.005.01 1.72 1.02zm14.1 73.3c-7.84 0-14.585-2.001-20.315-5.947l-2.269 3.294c6.47 4.455 14.025 6.653 22.584 6.653v-4zm-20.315-5.947c-5.743-3.954-10.22-9.631-13.393-17.132l-3.684 1.558c3.427 8.1 8.351 14.423 14.808 18.868l2.269-3.294zM19.535 99.465c-3.174-7.502-4.792-16.376-4.792-26.67h-4c0 10.705 1.682 20.13 5.108 28.228l3.684-1.558zm-4.792-26.67c0-15.717 3.537-27.83 10.375-36.568l-3.15-2.465c-7.561 9.661-11.225 22.749-11.225 39.032h4zm10.374-36.566c6.896-8.786 16.2-13.185 28.126-13.185v-4c-13.073 0-23.57 4.901-31.273 14.715l3.147 2.47zm28.126-13.185c11.927 0 21.174 4.398 27.969 13.174l3.163-2.448c-7.606-9.824-18.058-14.726-31.132-14.726v4zm27.975 13.183c6.839 8.738 10.375 20.85 10.375 36.567h4c0-16.283-3.663-29.37-11.225-39.032l-3.15 2.465zm10.375 36.567c0 15.606-3.581 27.722-10.523 36.565l3.147 2.47c7.658-9.757 11.376-22.84 11.376-39.035h-4zM81.062 109.37c-6.798 8.78-15.998 13.174-27.819 13.174v4c12.98 0 23.38-4.906 30.982-14.726l-3.163-2.448zM37.437 97.537c3.647 5.967 8.978 9.057 15.806 9.057v-4c-5.372 0-9.44-2.31-12.393-7.143l-3.413 2.086zm15.806 9.057c6.832 0 12.124-3.094 15.67-9.08l-3.44-2.04c-2.853 4.814-6.86 7.12-12.23 7.12v4zm15.68-9.094c3.453-5.937 5.07-14.195 5.07-24.556h-4c0 10.039-1.583 17.481-4.528 22.544l3.457 2.012zm5.07-24.556c0-10.464-1.667-18.783-5.235-24.729l-3.43 2.058c3.033 5.054 4.665 12.535 4.665 22.671h4zm-5.22-24.706c-3.533-6.07-8.766-9.244-15.53-9.244v4c5.237 0 9.203 2.326 12.072 7.256l3.457-2.012zm-15.53-9.244c-6.845 0-12.176 3.157-15.815 9.221l3.43 2.058c2.962-4.935 7.03-7.279 12.385-7.279v-4zm-15.82 9.23c-3.465 5.848-5.08 14.117-5.08 24.57h4c0-10.147 1.586-17.578 4.52-22.53l-3.44-2.04zm-5.08 24.57c0 10.457 1.616 18.767 5.072 24.706l3.457-2.012c-2.944-5.06-4.529-12.55-4.529-22.694h-4zm147.619 12.15h2v-2h-2v2zm0 18.6v2h2v-2h-2zm-8.7 0v-2h-2v2h2zm0 19.2v2h2v-2h-2zm-20.1 0h-2v2h2v-2zm0-19.2h2v-2h-2v2zm-47.85 0h-2v2h2v-2zm0-3.75l-1.839-.786-.161.376v.41h2zm32.85-76.8v-2h-1.32l-.519 1.214 1.839.786zm21.15 0l1.838.788 1.195-2.788h-3.033v2zm-26.55 61.95l-1.839-.788-1.194 2.788h3.033v-2zm21 0v2h1.731l.248-1.713-1.979-.287zm3.45-23.85v-2h-1.732l-.248 1.714 1.98.286zm16.05 0h2v-2h-2v2zm0 23.85h-2v2h2v-2zm6.7 0v18.6h4v-18.6h-4zm2 16.6h-8.7v4h8.7v-4zm-10.7 2v19.2h4v-19.2h-4zm2 17.2h-20.1v4h20.1v-4zm-18.1 2v-19.2h-4v19.2h4zm-2-21.2h-47.85v4h47.85v-4zm-45.85 2v-3.75h-4v3.75h4zm-.161-2.963l32.85-76.8-3.678-1.573-32.85 76.8 3.678 1.573zm31.011-75.587h21.15v-4h-21.15v4zm19.311-2.788l-26.55 61.95 3.677 1.576 26.55-61.95-3.677-1.576zm-24.711 64.738h21v-4h-21v4zm22.979-1.713l3.45-23.85-3.959-.573-3.45 23.85 3.959.573zm1.471-22.137h16.05v-4h-16.05v4zm14.05-2v23.85h4v-23.85h-4zm2 25.85h8.7v-4h-8.7v4zm21.996 35.8h-2v2h2v-2zm0-23.4v-2h-2v2h2zm23.25 0h2v-2h-2v2zm0 23.4v2h2v-2h-2zm-21.25 0v-23.4h-4v23.4h4zm-2-21.4h23.25v-4h-23.25v4zm21.25-2v23.4h4v-23.4h-4zm2 21.4h-23.25v4h23.25v-4z" fill="#000"/><path d="M90.057 116.659c-7.276 9.278-17.115 13.916-29.517 13.916-12.402 0-22.241-4.638-29.517-13.916-7.275-9.326-10.913-21.948-10.913-37.866 0-15.967 3.614-28.565 10.84-37.793 7.227-9.277 17.09-13.916 29.59-13.916S82.903 31.723 90.13 41c7.226 9.228 10.84 21.826 10.84 37.793 0 15.918-3.638 28.54-10.913 37.866zM46.55 102.377c3.222 5.469 7.886 8.203 13.989 8.203 6.104 0 10.767-2.71 13.99-8.13 3.222-5.42 4.833-13.257 4.833-23.51 0-10.254-1.635-18.116-4.907-23.584-3.271-5.518-7.91-8.277-13.916-8.277-6.103 0-10.767 2.734-13.99 8.203-3.222 5.42-4.833 13.257-4.833 23.511s1.611 18.115 4.834 23.584zm140.698-11.5v18.751h-8.643v19.116h-20.141v-19.116h-47.901v-3.882l32.886-76.758h21.167l-26.513 61.89h20.874l3.442-23.73h16.186v23.73h8.643zm13.33 37.867v-23.437h23.145v23.437h-23.145z" fill="#000"/><path fill="#76B3FF" d="M0 135.068l221.61-77.727 30.11 89.539-221.61 77.727z"/><path transform="matrix(.94249 -.33425 .31519 .94903 6.792 134.123)" stroke="#000" stroke-width="2" d="M0-1h202.854"/></svg>