<svg width="243" height="198" fill="none" xmlns="http://www.w3.org/2000/svg"><path d="M38.124 55.05V48.6c.1-2.6.3-5.25.6-7.95s.8-5.35 1.5-7.95c.7-2.7 1.65-5.1 2.85-7.2 1.3-2.1 2.9-3.8 4.8-5.1 2-1.3 4.45-1.95 7.35-1.95 2.9 0 5.35.65 7.35 1.95 2 1.3 3.65 3 4.95 5.1 1.3 2.1 2.25 4.5 2.85 7.2.7 2.6 1.2 5.25 1.5 7.95.4 2.7.6 5.35.6 7.95.1 2.5.15 4.65.15 6.45 0 3-.1 6.65-.3 10.95-.2 4.2-.85 8.3-1.95 12.3-1 3.9-2.7 7.25-5.1 10.05-2.3 2.8-5.65 4.2-10.05 4.2-4.3 0-7.6-1.4-9.9-4.2-2.3-2.8-4-6.15-5.1-10.05-1-4-1.6-8.1-1.8-12.3-.2-4.3-.3-7.95-.3-10.95zm-21.3 0c0 10.5 1 19.3 3 26.4 2.1 7 4.9 12.6 8.4 16.8 3.5 4.2 7.55 7.2 12.15 9 4.7 1.8 9.65 2.7 14.85 2.7 5.3 0 10.25-.9 14.85-2.7 4.7-1.8 8.8-4.8 12.3-9 3.6-4.2 6.4-9.8 8.4-16.8 2.1-7.1 3.15-15.9 3.15-26.4 0-10.2-1.05-18.75-3.15-25.65-2-7-4.8-12.6-8.4-16.8-3.5-4.2-7.6-7.2-12.3-9-4.6-1.8-9.55-2.7-14.85-2.7-5.2 0-10.15.9-14.85 2.7-4.6 1.8-8.65 4.8-12.15 9s-6.3 9.8-8.4 16.8c-2 6.9-3 15.45-3 25.65zm123.099-1.5c2.7 0 5.05.6 7.05 1.8 2.1 1.1 3.8 2.6 5.1 4.5 1.3 1.8 2.25 3.9 2.85 6.3.7 2.3 1.05 4.7 1.05 7.2 0 2.4-.35 4.75-1.05 7.05-.7 2.3-1.75 4.35-3.15 6.15-1.4 1.8-3.1 3.25-5.1 4.35-1.9 1.1-4.15 1.65-6.75 1.65-2.7 0-5.1-.55-7.2-1.65-2.1-1.1-3.9-2.55-5.4-4.35-1.4-1.9-2.5-4-3.3-6.3-.7-2.4-1.05-4.8-1.05-7.2 0-2.6.35-5.05 1.05-7.35.7-2.4 1.75-4.5 3.15-6.3 1.4-1.8 3.15-3.2 5.25-4.2 2.2-1.1 4.7-1.65 7.5-1.65zm15.3-23.55h20.25c-.6-4.7-1.85-8.85-3.75-12.45-1.9-3.6-4.35-6.6-7.35-9-3-2.5-6.45-4.4-10.35-5.7-3.9-1.3-8.1-1.95-12.6-1.95-7.5 0-13.85 1.65-19.05 4.95-5.2 3.3-9.45 7.6-12.75 12.9-3.3 5.2-5.7 11.05-7.2 17.55s-2.25 13-2.25 19.5c0 6.7.6 13.3 1.8 19.8 1.2 6.4 3.35 12.15 6.45 17.25s7.25 9.25 12.45 12.45c5.2 3.1 11.75 4.65 19.65 4.65 5.5 0 10.5-.95 15-2.85 4.5-2 8.35-4.7 11.55-8.1 3.3-3.5 5.8-7.55 7.5-12.15 1.8-4.7 2.7-9.75 2.7-15.15 0-4.2-.65-8.35-1.95-12.45-1.3-4.1-3.35-7.75-6.15-10.95-3-3.3-6.65-5.9-10.95-7.8-4.3-2-8.7-3-13.2-3-5.1 0-9.6.9-13.5 2.7-3.9 1.8-7.3 4.8-10.2 9l-.3-.3c.1-2.9.5-6.2 1.2-9.9s1.8-7.15 3.3-10.35c1.5-3.3 3.5-6.05 6-8.25 2.6-2.3 5.8-3.45 9.6-3.45 3.7 0 6.8 1.3 9.3 3.9 2.5 2.6 4.1 5.65 4.8 9.15zm34.15 54.9V108h23.55V84.9h-23.55z" fill="#000"/><path d="M33.19 35.96h0l.002-.009c.68-2.62 1.596-4.93 2.741-6.94 1.228-1.979 2.728-3.567 4.496-4.779 1.804-1.17 4.051-1.782 6.795-1.782 2.748 0 5 .615 6.805 1.789 1.872 1.217 3.42 2.808 4.645 4.788 1.234 1.994 2.145 4.287 2.724 6.89l.005.022.005.021a52.088 52.088 0 011.472 7.8l.002.019.003.018a53.23 53.23 0 01.589 7.803v.04c.1 2.492.15 4.628.15 6.41 0 2.98-.1 6.613-.3 10.904a55.344 55.344 0 01-1.914 12.081l-.003.009-.002.008c-.965 3.765-2.599 6.974-4.89 9.648l-.007.008-.007.008c-2.07 2.519-5.106 3.834-9.277 3.834-4.063 0-7.053-1.31-9.127-3.834-2.2-2.678-3.84-5.896-4.907-9.673a61.93 61.93 0 01-1.767-12.09c-.2-4.29-.3-7.923-.3-10.903v-6.43c.1-2.57.298-5.189.595-7.86.294-2.65.785-5.25 1.472-7.8zM10.86 84.722l.003.008.002.008c2.126 7.088 4.98 12.82 8.59 17.153 3.596 4.315 7.78 7.423 12.553 9.291l.007.002c4.818 1.845 9.89 2.766 15.208 2.766 5.414 0 10.488-.919 15.212-2.767 4.869-1.866 9.104-4.971 12.702-9.287 3.715-4.337 6.57-10.075 8.596-17.167 2.135-7.22 3.19-16.121 3.19-26.679 0-10.257-1.055-18.91-3.19-25.932-2.028-7.09-4.882-12.827-8.596-17.163-3.598-4.316-7.833-7.421-12.703-9.287C57.71 3.82 52.638 2.9 47.224 2.9c-5.318 0-10.39.921-15.208 2.767h0l-.006.002c-4.774 1.868-8.958 4.976-12.554 9.291-3.61 4.332-6.464 10.065-8.59 17.153h0l-.003.009c-2.034 7.02-3.04 15.67-3.04 25.928 0 10.557 1.005 19.455 3.038 26.672zm127.6-25.514l.025.015.025.013c1.96 1.027 3.534 2.418 4.739 4.18l.007.01.008.01c1.217 1.686 2.118 3.666 2.69 5.957l.006.024.008.025a23.596 23.596 0 011.006 6.908c0 2.302-.335 4.553-1.006 6.76-.667 2.189-1.662 4.128-2.983 5.826a15.423 15.423 0 01-4.792 4.088l-.01.005-.01.006c-1.721.997-3.792 1.515-6.249 1.515-2.561 0-4.798-.52-6.736-1.535a16.574 16.574 0 01-5.076-4.082 22.627 22.627 0 01-3.135-5.987 24.628 24.628 0 01-1.003-6.896c0-2.509.338-4.86 1.007-7.058h0l.003-.012c.669-2.29 1.664-4.274 2.98-5.966 1.302-1.674 2.928-2.976 4.89-3.91l.009-.005.009-.004c2.043-1.022 4.386-1.545 7.052-1.545 2.548 0 4.715.565 6.536 1.658zm7.784-26.011l.161.803h22.205l-.144-1.126c-.612-4.8-1.893-9.069-3.857-12.79-1.959-3.711-4.492-6.819-7.602-9.308-3.099-2.581-6.658-4.538-10.666-5.874-4.011-1.337-8.319-2.002-12.917-2.002-7.648 0-14.193 1.684-19.585 5.106-5.328 3.38-9.683 7.788-13.061 13.212-3.365 5.303-5.805 11.258-7.328 17.857-1.516 6.572-2.275 13.148-2.275 19.725 0 6.76.605 13.421 1.816 19.982v.003c1.22 6.507 3.41 12.373 6.579 17.585 3.184 5.238 7.449 9.501 12.78 12.782h0l.012.007c5.396 3.217 12.136 4.791 20.162 4.791 5.617 0 10.752-.97 15.389-2.928l.009-.004.009-.004c4.614-2.051 8.575-4.826 11.871-8.328 3.393-3.598 5.963-7.762 7.708-12.483 1.846-4.82 2.764-9.991 2.764-15.503 0-4.305-.666-8.556-1.996-12.752-1.341-4.23-3.459-8.001-6.351-11.306l-.006-.007-.007-.007c-3.096-3.407-6.86-6.085-11.276-8.038-4.423-2.056-8.963-3.09-13.614-3.09-5.217 0-9.865.922-13.919 2.792-3.348 1.546-6.32 3.924-8.925 7.105.191-2.193.532-4.596 1.027-7.21.685-3.624 1.761-6.993 3.223-10.112h0l.005-.01c1.447-3.184 3.365-5.815 5.75-7.914l.002-.002c2.399-2.122 5.357-3.199 8.937-3.199 3.436 0 6.274 1.195 8.58 3.594 2.369 2.463 3.878 5.342 4.54 8.652zm35.13 53.703h-1V112h25.55V86.9h-24.55z" stroke="#000" stroke-width="2"/><path fill="#fff" d="M0 108.324l211.035-71.629 31.114 89.54-211.035 71.628z"/><path stroke="#000" stroke-width="2" d="M6.694 106.433L204.259 38.63"/></svg>