<svg width="723" height="21" fill="none" xmlns="http://www.w3.org/2000/svg"><path d="M12.565 8.917h639.287c.643 0 38.302.058 30.626 0-24.361-.186-49.279-1.998-73.245-2.771-97.489-3.144-198.099-1.98-296.407-1.98H107.227c-11.779 0-44.924-.55-35.124.792 11.325 1.55 41.428 1.27 53.97 1.584 61.726 1.546 125.109 1.42 187.182 1.539 95.614.184 195.851 1.675 290.838-1.1C641.671 5.884 752.131 1 714.174 1c-99.321 0-193.353 4.808-290.409 8.884C283.092 15.792 144.505 20 1 20" stroke="#000" stroke-width="2" stroke-linecap="round"/></svg>